<svg width="24" height="16" viewBox="0 0 24 16" fill="none" xmlns="http://www.w3.org/2000/svg">
<g id="amex-a49b82f46c5cd6a96a6e418a6ca1717c.svg" clip-path="url(#clip0_2206_3040)">
<g id="Group">
<path id="Vector" d="M22 0.000366211H2C0.89543 0.000366211 0 0.895797 0 2.00037V14.0004C0 15.1049 0.89543 16.0004 2 16.0004H22C23.1046 16.0004 24 15.1049 24 14.0004V2.00037C24 0.895797 23.1046 0.000366211 22 0.000366211Z" fill="#016FD0"/>
<path id="Vector_2" fill-rule="evenodd" clip-rule="evenodd" d="M13.7637 13.3941V7.69275L23.9112 7.70185V9.27675L22.7383 10.5301L23.9112 11.795V13.4033H22.0386L21.0434 12.3052L20.0553 13.4075L13.7637 13.3941Z" fill="#FFFFFE"/>
<path id="Vector_3" fill-rule="evenodd" clip-rule="evenodd" d="M14.4414 12.7696V8.32068H18.2137V9.34556H15.6628V10.0413H18.1529V11.0491H15.6628V11.7324H18.2137V12.7696H14.4414Z" fill="#016FD0"/>
<path id="Vector_4" fill-rule="evenodd" clip-rule="evenodd" d="M18.1954 12.7695L20.2827 10.5425L18.1953 8.32068H19.811L21.0865 9.73071L22.3656 8.32068H23.9117V8.35568L21.8689 10.5425L23.9117 12.7064V12.7695H22.35L21.0519 11.3453L19.7671 12.7695H18.1954Z" fill="#016FD0"/>
<path id="Vector_5" fill-rule="evenodd" clip-rule="evenodd" d="M14.2369 2.6322H16.6829L17.5421 4.58305V2.6322H20.5619L21.0827 4.09377L21.6052 2.6322H23.9111V8.33359H11.7246L14.2369 2.6322Z" fill="#FFFFFE"/>
<g id="Group_2">
<path id="Vector_6" fill-rule="evenodd" clip-rule="evenodd" d="M14.7006 3.25232L12.7266 7.69749H14.0805L14.4529 6.80732H16.4708L16.843 7.69749H18.2306L16.2648 3.25232H14.7006ZM14.8702 5.80976L15.4622 4.39468L16.0538 5.80976H14.8702Z" fill="#016FD0"/>
<path id="Vector_7" fill-rule="evenodd" clip-rule="evenodd" d="M18.2129 7.69643V3.25134L20.116 3.25788L21.0953 5.99061L22.0809 3.25134H23.9125V7.69643L22.7339 7.70686V4.65351L21.6213 7.69643H20.5455L19.4099 4.64308V7.69643H18.2129Z" fill="#016FD0"/>
</g>
</g>
</g>
<defs>
<clipPath id="clip0_2206_3040">
<rect width="24" height="16" fill="white" transform="translate(0 0.000366211)"/>
</clipPath>
</defs>
</svg>
