<svg width="25" height="17" viewBox="0 0 25 17" fill="none" xmlns="http://www.w3.org/2000/svg">
<g id="Img - CVC" clip-path="url(#clip0_2206_3074)">
<g id="Group">
<g id="Group_2">
<g id="Group_3">
<path id="Vector" opacity="0.2" fill-rule="evenodd" clip-rule="evenodd" d="M17.1415 2.39526H2.15398C1.45335 2.39526 0.630859 3.20269 0.630859 3.9187V15.3445C0.630859 16.0605 1.45335 16.8679 2.15398 16.8679H21.193C21.8937 16.8679 22.7162 16.0605 22.7162 15.3445V9.60874C22.0746 10.186 21.2823 10.569 20.4315 10.7132V10.7742C20.4315 11.2769 20.1573 11.5359 19.6699 11.5359H2.91555C2.42815 11.5359 2.15398 11.2769 2.15398 10.7742V10.0125C2.15398 9.50972 2.42815 9.25073 2.91555 9.25073H16.2657C15.8261 8.76345 15.497 8.18689 15.3009 7.56055C15.1047 6.9342 15.0463 6.27286 15.1294 5.62181C15.2126 4.97076 15.4355 4.34537 15.7827 3.78848C16.13 3.23158 16.5935 2.75633 17.1415 2.39526Z" fill="#565656"/>
<path id="Vector_2" opacity="0.3" fill-rule="evenodd" clip-rule="evenodd" d="M15.3595 4.68042H0.630859V6.96558H15.1615C15.0335 6.19935 15.1017 5.4132 15.3595 4.68042Z" fill="#565656"/>
</g>
<g id="Group_4">
<path id="Vector_3" fill-rule="evenodd" clip-rule="evenodd" d="M19.6708 11.5359C18.2569 11.5359 16.901 10.9741 15.9012 9.97417C14.9015 8.97422 14.3398 7.618 14.3398 6.20386C14.3398 4.78971 14.9015 3.43349 15.9012 2.43354C16.901 1.43359 18.2569 0.871826 19.6708 0.871826C21.0846 0.871826 22.4406 1.43359 23.4403 2.43354C24.4401 3.43349 25.0017 4.78971 25.0017 6.20386C25.0017 7.618 24.4401 8.97422 23.4403 9.97417C22.4406 10.9741 21.0846 11.5359 19.6708 11.5359ZM17.5536 3.99487H16.952L15.4822 4.74136V5.50308L16.6474 4.8937V8.41284H17.5613V3.99487H17.5536ZM19.3052 4.60425C19.7393 4.60425 20.0439 4.848 20.0439 5.19839C20.0439 5.57925 19.686 5.84585 19.1682 5.84585H18.9397V6.49331H19.2138C19.7622 6.49331 20.1353 6.76753 20.1353 7.16362C20.1353 7.54448 19.7698 7.80347 19.2519 7.80347C18.8711 7.80347 18.4904 7.68159 18.0943 7.44546V8.20718C18.5208 8.38999 18.9473 8.48901 19.3662 8.48901C20.3638 8.48901 21.0492 7.97866 21.0492 7.23979C21.0492 6.72183 20.7294 6.30288 20.1963 6.1353C20.6532 5.98296 20.9502 5.57925 20.9502 5.12222C20.9502 4.4062 20.3181 3.9187 19.4042 3.9187C18.9923 3.92327 18.5855 4.01138 18.2086 4.17769V4.92417C18.5741 4.71851 18.9473 4.60425 19.3052 4.60425ZM22.5952 6.26479C23.1511 6.26479 23.5395 6.59233 23.5395 7.0189C23.5395 7.46831 23.1511 7.78061 22.5952 7.78061C22.2601 7.78061 21.9098 7.67397 21.5518 7.45308V8.23765C21.925 8.40522 22.3058 8.48901 22.679 8.48901C22.877 8.48901 23.0597 8.45854 23.2349 8.41284C23.6309 7.76538 23.8594 7.0189 23.8594 6.21909L23.8441 5.89917C23.561 5.73153 23.2364 5.64706 22.9074 5.65542C22.7703 5.65542 22.6256 5.66304 22.4733 5.68589V4.69565H23.57C23.4749 4.45184 23.3576 4.21726 23.2197 3.99487H21.6813V6.39429C21.9859 6.31812 22.2906 6.26479 22.5952 6.26479Z" fill="#565656"/>
</g>
</g>
</g>
</g>
<defs>
<clipPath id="clip0_2206_3074">
<rect width="24.37" height="16" fill="white" transform="translate(0.630859 0.869873)"/>
</clipPath>
</defs>
</svg>
