<svg width="16" height="17" viewBox="0 0 16 17" fill="none" xmlns="http://www.w3.org/2000/svg">
<g id="FlagIcon-US-858b47c5a50311ee27ec390dd06d3b67.svg">
<g id="Group">
<path id="Vector" d="M14 14.1299H2C0.89543 14.1299 0 13.2345 0 12.1299V8.12988V4.12988C0 3.02531 0.89543 2.12988 2 2.12988H8H14C15.1046 2.12988 16 3.02531 16 4.12988V12.1299C16 13.2345 15.1046 14.1299 14 14.1299Z" fill="#E25950"/>
<path id="Vector_2" d="M0 11.1299H16V12.1299H0V11.1299ZM14 14.1299H2C1.25972 14.1299 0.613374 13.7277 0.267564 13.1299H15.7324C15.3866 13.7277 14.7403 14.1299 14 14.1299ZM0 9.12988H16V10.1299H0V9.12988ZM8 7.12988H16V8.12988H8V7.12988ZM8 5.12988H16V6.12988H8V5.12988ZM8 3.12988H15.723C15.894 3.42488 16 3.76388 16 4.12988H8V3.12988Z" fill="#F6F9FC"/>
<path id="Vector_3" opacity="0.1" d="M14 14.1299H2C0.89543 14.1299 0 13.2345 0 12.1299V8.12988H1V12.1299C1 12.6822 1.44772 13.1299 2 13.1299H14C14.5523 13.1299 15 12.6822 15 12.1299V4.12988C15 3.5776 14.5523 3.12988 14 3.12988H8V2.12988H14C15.1046 2.12988 16 3.02531 16 4.12988V12.1299C16 13.2345 15.1046 14.1299 14 14.1299Z" fill="#E25950"/>
<path id="Vector_4" d="M0 8.12988V3.84417C0 2.89739 0.795938 2.12988 1.77778 2.12988H8V8.12988H0Z" fill="#43458B"/>
<path id="Vector_5" d="M7.02551 5.63184C7.02551 5.90798 6.80165 6.13184 6.52551 6.13184C6.24937 6.13184 6.02551 5.90798 6.02551 5.63184C6.02551 5.35569 6.24937 5.13184 6.52551 5.13184C6.80165 5.13184 7.02551 5.35569 7.02551 5.63184ZM5.51782 5.13048C5.33482 5.13738 5.16269 5.04368 5.06914 4.88625C4.97559 4.72882 4.97559 4.53285 5.06914 4.37541C5.16269 4.21798 5.33482 4.12429 5.51782 4.13119C5.78644 4.14132 5.99898 4.36202 5.99898 4.63083C5.99898 4.89964 5.78644 5.12035 5.51782 5.13048ZM5.02551 5.63184C5.02551 5.90798 4.80165 6.13184 4.52551 6.13184C4.24937 6.13184 4.02551 5.90798 4.02551 5.63184C4.02551 5.35569 4.24937 5.13184 4.52551 5.13184C4.80165 5.13184 5.02551 5.35569 5.02551 5.63184ZM3.51782 5.13048C3.33482 5.13738 3.16269 5.04368 3.06914 4.88625C2.97559 4.72882 2.97559 4.53285 3.06914 4.37541C3.16269 4.21798 3.33482 4.12429 3.51782 4.13119C3.78644 4.14132 3.99898 4.36202 3.99898 4.63083C3.99898 4.89964 3.78644 5.12035 3.51782 5.13048ZM3.02551 5.63184C3.02551 5.90798 2.80165 6.13184 2.52551 6.13184C2.24937 6.13184 2.02551 5.90798 2.02551 5.63184C2.02551 5.35569 2.24937 5.13184 2.52551 5.13184C2.80165 5.13184 3.02551 5.35569 3.02551 5.63184ZM7.02551 3.63184C7.02551 3.90798 6.80165 4.13184 6.52551 4.13184C6.24937 4.13184 6.02551 3.90798 6.02551 3.63184C6.02551 3.35569 6.24937 3.13184 6.52551 3.13184C6.80165 3.13184 7.02551 3.35569 7.02551 3.63184ZM5.02551 3.63184C5.02551 3.90798 4.80165 4.13184 4.52551 4.13184C4.24937 4.13184 4.02551 3.90798 4.02551 3.63184C4.02551 3.35569 4.24937 3.13184 4.52551 3.13184C4.80165 3.13184 5.02551 3.35569 5.02551 3.63184ZM3.02551 3.63184C3.02551 3.90798 2.80165 4.13184 2.52551 4.13184C2.24937 4.13184 2.02551 3.90798 2.02551 3.63184C2.02551 3.35569 2.24937 3.13184 2.52551 3.13184C2.80165 3.13184 3.02551 3.35569 3.02551 3.63184ZM1.51885 5.13248C1.33585 5.13938 1.16372 5.04569 1.07016 4.88826C0.976612 4.73082 0.976612 4.53484 1.07016 4.37741C1.16372 4.21998 1.33585 4.12629 1.51885 4.13319C1.78747 4.14333 2 4.36403 2 4.63283C2 4.90164 1.78747 5.12234 1.51885 5.13248ZM1.53305 6.1312C1.71605 6.12443 1.88812 6.21824 1.98155 6.37574C2.07499 6.53324 2.07485 6.72921 1.98119 6.88658C1.88753 7.04394 1.71533 7.13751 1.53234 7.13048C1.26373 7.12016 1.05134 6.89931 1.05153 6.6305C1.05172 6.36169 1.26442 6.14113 1.53305 6.1312ZM3.53305 6.1312C3.71605 6.12443 3.88812 6.21824 3.98155 6.37574C4.07499 6.53324 4.07485 6.72921 3.98119 6.88658C3.88753 7.04394 3.71533 7.13751 3.53234 7.13048C3.26373 7.12016 3.05134 6.89931 3.05153 6.6305C3.05172 6.36169 3.26442 6.14113 3.53305 6.1312ZM5.53305 6.1312C5.71605 6.12443 5.88812 6.21824 5.98155 6.37574C6.07499 6.53324 6.07485 6.72921 5.98119 6.88658C5.88753 7.04394 5.71533 7.13751 5.53234 7.13048C5.26373 7.12016 5.05134 6.89931 5.05153 6.6305C5.05172 6.36169 5.26442 6.14113 5.53305 6.1312Z" fill="white"/>
<path id="Vector_6" opacity="0.5" fill-rule="evenodd" clip-rule="evenodd" d="M6.53305 7.13024C6.71605 7.12348 6.88812 7.21729 6.98155 7.37479C7.07499 7.53229 7.07485 7.72826 6.98119 7.88563C6.88753 8.04299 6.71533 8.13656 6.53234 8.12953C6.26373 8.11921 6.05134 7.89836 6.05153 7.62955C6.05172 7.36073 6.26442 7.14018 6.53305 7.13024ZM4.53305 7.13024C4.71605 7.12348 4.88812 7.21729 4.98155 7.37479C5.07499 7.53229 5.07485 7.72826 4.98119 7.88563C4.88753 8.04299 4.71533 8.13656 4.53234 8.12953C4.26373 8.11921 4.05134 7.89836 4.05153 7.62955C4.05172 7.36073 4.26442 7.14018 4.53305 7.13024ZM2.53305 7.13024C2.71605 7.12348 2.88812 7.21729 2.98155 7.37479C3.07499 7.53229 3.07485 7.72826 2.98119 7.88563C2.88753 8.04299 2.71533 8.13656 2.53234 8.12953C2.26373 8.11921 2.05134 7.89836 2.05153 7.62955C2.05172 7.36073 2.26442 7.14018 2.53305 7.13024ZM0.481517 7.13023C0.66452 7.12346 0.836583 7.21727 0.93002 7.37477C1.02346 7.53227 1.02332 7.72824 0.929657 7.88561C0.835996 8.04297 0.6638 8.13654 0.480807 8.12951C0.212193 8.11919 -0.000190925 7.89834 1.28798e-07 7.62953C0.000191182 7.36072 0.212889 7.14016 0.481517 7.13023ZM0.481517 5.13023C0.66452 5.12346 0.836583 5.21727 0.93002 5.37477C1.02346 5.53227 1.02332 5.72824 0.929657 5.88561C0.835996 6.04297 0.6638 6.13654 0.480807 6.12951C0.212193 6.11919 -0.000190925 5.89834 1.28798e-07 5.62953C0.000191182 5.36072 0.212889 5.14016 0.481517 5.13023ZM0.481517 3.13023C0.66452 3.12346 0.836583 3.21727 0.93002 3.37477C1.02346 3.53227 1.02332 3.72824 0.929657 3.88561C0.835996 4.04297 0.6638 4.13654 0.480807 4.12951C0.212193 4.11919 -0.000190925 3.89834 1.28798e-07 3.62953C0.000191182 3.36072 0.212889 3.14016 0.481517 3.13023ZM1.48152 2.13023C1.66452 2.12346 1.83658 2.21727 1.93002 2.37477C2.02346 2.53227 2.02332 2.72824 1.92966 2.88561C1.836 3.04297 1.6638 3.13654 1.48081 3.12951C1.21219 3.11919 0.999809 2.89834 1 2.62953C1.00019 2.36072 1.21289 2.14016 1.48152 2.13023ZM3.48152 2.13023C3.66452 2.12346 3.83658 2.21727 3.93002 2.37477C4.02346 2.53227 4.02332 2.72824 3.92966 2.88561C3.836 3.04297 3.6638 3.13654 3.48081 3.12951C3.21219 3.11919 2.99981 2.89834 3 2.62953C3.00019 2.36072 3.21289 2.14016 3.48152 2.13023ZM5.48152 2.13023C5.66452 2.12346 5.83658 2.21727 5.93002 2.37477C6.02346 2.53227 6.02332 2.72824 5.92966 2.88561C5.836 3.04297 5.6638 3.13654 5.48081 3.12951C5.21219 3.11919 4.99981 2.89834 5 2.62953C5.00019 2.36072 5.21289 2.14016 5.48152 2.13023ZM7.48152 2.13023C7.66452 2.12346 7.83658 2.21727 7.93002 2.37477C8.02346 2.53227 8.02332 2.72824 7.92966 2.88561C7.836 3.04297 7.6638 3.13654 7.48081 3.12951C7.21219 3.11919 6.99981 2.89834 7 2.62953C7.00019 2.36072 7.21289 2.14016 7.48152 2.13023ZM7.48152 4.13023C7.66452 4.12346 7.83658 4.21727 7.93002 4.37477C8.02346 4.53227 8.02332 4.72824 7.92966 4.88561C7.836 5.04297 7.6638 5.13654 7.48081 5.12951C7.21219 5.11919 6.99981 4.89834 7 4.62953C7.00019 4.36072 7.21289 4.14016 7.48152 4.13023ZM7.48152 6.13023C7.66452 6.12346 7.83658 6.21727 7.93002 6.37477C8.02346 6.53227 8.02332 6.72824 7.92966 6.88561C7.836 7.04297 7.6638 7.13654 7.48081 7.12951C7.21219 7.11919 6.99981 6.89834 7 6.62953C7.00019 6.36072 7.21289 6.14016 7.48152 6.13023Z" fill="white"/>
</g>
</g>
</svg>
