<svg width="23" height="16" viewBox="0 0 23 16" fill="none" xmlns="http://www.w3.org/2000/svg">
<g id="jcb-271fd06e6e7a2c52692ffa91a95fb64f.svg" clip-path="url(#clip0_2206_3055)">
<g id="Group">
<path id="Vector" d="M0.205078 16.0004H4.72294C5.75075 16.0004 6.98186 14.8057 6.98186 13.867V0.000366211H2.46401C1.43619 0.000366211 0.205078 1.19503 0.205078 3.20037V16.0004Z" fill="#047AB1"/>
<path id="Vector_2" d="M2.76896 10.816C1.90163 10.8162 1.03857 10.7013 0.205078 10.4747V9.30137C0.851867 9.67908 1.59118 9.89221 2.35106 9.92004C3.22075 9.92004 3.70642 9.34404 3.70642 8.55471V5.33337H5.8524V8.55471C5.8524 9.81337 5.15213 10.816 2.76896 10.816Z" fill="white"/>
<path id="Vector_3" d="M8.11133 16.0004H12.6292C13.657 16.0004 14.8881 14.8057 14.8881 13.867V0.000366211H10.3703C9.34244 0.000366211 8.11133 1.19503 8.11133 3.20037V16.0004Z" fill="#D42D06"/>
<path id="Vector_4" d="M8.11133 6.08042C8.76642 5.48309 9.89588 5.10975 11.7256 5.19509C12.7195 5.23775 13.7586 5.51509 13.7586 5.51509V6.69909C13.1643 6.35961 12.4963 6.15174 11.8047 6.09109C10.4154 5.97375 9.56834 6.70975 9.56834 8.00042C9.56834 9.29109 10.4154 10.0271 11.8047 9.92042C12.4967 9.85435 13.1643 9.64297 13.7586 9.30175V10.4751C13.7586 10.4751 12.7195 10.7631 11.7256 10.8058C9.89588 10.8911 8.76642 10.5178 8.11133 9.92042V6.08042Z" fill="white"/>
<path id="Vector_5" d="M16.0176 16.0004H20.5354C21.5632 16.0004 22.7944 14.8057 22.7944 13.867V0.000366211H18.2765C17.2487 0.000366211 16.0176 1.19503 16.0176 3.20037V16.0004Z" fill="#67B637"/>
<path id="Vector_6" d="M21.6649 9.28004C21.6649 10.1334 20.9646 10.6667 20.0272 10.6667H16.0176V5.33337H19.6657L19.9255 5.34404C20.75 5.38671 21.3599 5.84537 21.3599 6.63471C21.3599 7.25337 20.942 7.78671 20.1853 7.91471V7.94671C21.0211 8.00004 21.6649 8.50137 21.6649 9.28004ZM18.7848 6.17604C18.7362 6.16917 18.6871 6.16561 18.6379 6.16537H17.2826V7.50937H18.7848C19.0671 7.44537 19.3043 7.20004 19.3043 6.83737C19.3043 6.47471 19.0671 6.22937 18.7848 6.17604ZM18.9542 8.35204C18.8944 8.34318 18.8339 8.33961 18.7735 8.34137H17.2826V9.80271H18.7735L18.9542 9.78137C19.2366 9.71737 19.4737 9.44004 19.4737 9.06671C19.4737 8.69337 19.2478 8.42671 18.9542 8.35204Z" fill="white"/>
</g>
</g>
<defs>
<clipPath id="clip0_2206_3055">
<rect width="23" height="16" fill="white" transform="translate(0 0.000366211)"/>
</clipPath>
</defs>
</svg>
