<svg width="24" height="16" viewBox="0 0 24 16" fill="none" xmlns="http://www.w3.org/2000/svg">
<g id="mastercard-4d8844094130711885b5e41b28c9848f.svg" clip-path="url(#clip0_2206_3030)">
<g id="Group">
<path id="Vector" d="M22 0.000366211H2C0.89543 0.000366211 0 0.895797 0 2.00037V14.0004C0 15.1049 0.89543 16.0004 2 16.0004H22C23.1046 16.0004 24 15.1049 24 14.0004V2.00037C24 0.895797 23.1046 0.000366211 22 0.000366211Z" fill="#252525"/>
<path id="Vector_2" d="M9 13.0004C11.7614 13.0004 14 10.7618 14 8.00037C14 5.23894 11.7614 3.00037 9 3.00037C6.23858 3.00037 4 5.23894 4 8.00037C4 10.7618 6.23858 13.0004 9 13.0004Z" fill="#EB001B"/>
<path id="Vector_3" d="M15 13.0004C17.7614 13.0004 20 10.7618 20 8.00037C20 5.23894 17.7614 3.00037 15 3.00037C12.2386 3.00037 10 5.23894 10 8.00037C10 10.7618 12.2386 13.0004 15 13.0004Z" fill="#F79E1B"/>
<path id="Vector_4" fill-rule="evenodd" clip-rule="evenodd" d="M12 4.00037C13.2144 4.91257 14 6.36491 14 8.00073C14 9.63655 13.2144 11.0889 12 12.0011C10.7856 11.0889 10 9.63655 10 8.00073C10 6.36491 10.7856 4.91257 12 4.00037Z" fill="#FF5F00"/>
</g>
</g>
<defs>
<clipPath id="clip0_2206_3030">
<rect width="24" height="16" fill="white" transform="translate(0 0.000366211)"/>
</clipPath>
</defs>
</svg>
