<svg width="24" height="11" viewBox="0 0 24 11" fill="none" xmlns="http://www.w3.org/2000/svg">
<g id="SVG" clip-path="url(#clip0_2206_3144)">
<path id="Vector" d="M2.34974 0.767677H0.745117V10.5002H2.34974V0.767677ZM20.5359 6.97699C21.2336 5.97699 21.908 4.80261 22.501 3.55843H20.7102C20.0126 4.91886 19.2336 6.1398 18.4429 7.07005C18.2452 7.31424 18.0359 7.53511 17.8382 7.7328V0.767677H16.2336V8.89561C15.9661 9.00024 15.7102 9.05836 15.4777 9.05836C15.0592 9.05836 14.8499 8.7328 14.8499 8.07005V7.30255C14.8614 5.50024 14.8731 4.19793 13.4661 3.60493C13.1172 3.45374 12.5592 3.34911 11.8499 3.6398C10.7336 4.10493 9.64049 5.45374 8.72193 7.00024V3.55836H7.10562V10.5002H8.78005C9.87312 7.84911 11.4312 5.58168 12.4661 5.1398C12.6987 5.0468 12.7917 5.08168 12.8382 5.10493C13.1987 5.25605 13.2569 5.57005 13.2452 7.30255V8.08168C13.2452 9.37236 13.9312 10.6746 15.4777 10.6746C16.7801 10.6746 18.1289 9.88399 19.4894 8.33749L20.7801 10.4072H22.6754L20.5359 6.97699ZM3.9428 10.5007H5.54743V3.55886H3.9428V10.5007ZM4.74512 2.46561C5.23962 2.46561 5.64043 2.06474 5.64043 1.5703C5.64043 1.0758 5.23962 0.674927 4.74512 0.674927C4.25062 0.674927 3.84974 1.0758 3.84974 1.5703C3.84974 2.06474 4.25062 2.46561 4.74512 2.46561Z" fill="#1A1A1A" fill-opacity="0.6"/>
</g>
<defs>
<clipPath id="clip0_2206_3144">
<rect width="22.5" height="10" fill="white" transform="translate(0.745117 0.674927)"/>
</clipPath>
</defs>
</svg>
