<svg width="24" height="16" viewBox="0 0 24 16" fill="none" xmlns="http://www.w3.org/2000/svg">
<g id="visa-729c05c240c4bdb47b03ac81d9945bfe.svg" clip-path="url(#clip0_2206_3018)">
<g id="Group">
<g id="Group_2">
<g id="Group_3">
<g id="Group_4">
<g id="Group_5">
<path id="Vector" d="M21.75 0.250366H2.25C1.14543 0.250366 0.25 1.1458 0.25 2.25037V13.7504C0.25 14.8549 1.14543 15.7504 2.25 15.7504H21.75C22.8546 15.7504 23.75 14.8549 23.75 13.7504V2.25037C23.75 1.1458 22.8546 0.250366 21.75 0.250366Z" fill="white" stroke="black" stroke-opacity="0.2" stroke-width="0.5"/>
<path id="Vector_2" d="M2.78773 5.9148C2.26459 5.62787 1.66754 5.3971 1 5.23696L1.028 5.11225H3.76498C4.13596 5.12525 4.43699 5.23687 4.53495 5.63108L5.12977 8.46696L5.31198 9.32109L6.97797 5.11225H8.77679L6.10288 11.2779H4.30397L2.78773 5.9148ZM10.1 11.2844H8.39883L9.46285 5.11225H11.1639L10.1 11.2844ZM16.2668 5.26314L16.0354 6.59595L15.8816 6.53041C15.5737 6.40561 15.1674 6.2809 14.6144 6.29408C13.9427 6.29408 13.6415 6.56314 13.6345 6.82582C13.6345 7.11478 13.9989 7.30521 14.5939 7.58762C15.574 8.02755 16.0286 8.56593 16.0218 9.26855C16.0081 10.549 14.846 11.3764 13.0611 11.3764C12.2979 11.3698 11.5628 11.2185 11.1638 11.0479L11.4019 9.66241L11.6259 9.76103C12.1789 9.99108 12.5428 10.0893 13.222 10.0893C13.7118 10.0893 14.2369 9.89874 14.2436 9.48525C14.2436 9.21602 14.0199 9.01887 13.3617 8.71682C12.7178 8.42124 11.8568 7.92885 11.8708 7.04235C11.8781 5.84079 13.0611 5.00037 14.741 5.00037C15.399 5.00037 15.9312 5.13826 16.2668 5.26314ZM18.5278 9.09785H19.9417C19.8718 8.78926 19.5496 7.31184 19.5496 7.31184L19.4307 6.78001C19.3467 7.00979 19.1999 7.3841 19.2069 7.37092C19.2069 7.37092 18.6678 8.74327 18.5278 9.09785ZM20.6276 5.11225L22 11.2844H20.4249C20.4249 11.2844 20.2708 10.5752 20.2219 10.3585H18.0378C17.9746 10.5226 17.6808 11.2844 17.6808 11.2844H15.8958L18.4226 5.62436C18.5977 5.22378 18.906 5.11225 19.3118 5.11225H20.6276Z" fill="#1434CB"/>
</g>
</g>
</g>
</g>
</g>
</g>
<defs>
<clipPath id="clip0_2206_3018">
<rect width="24" height="16" fill="white" transform="translate(0 0.000366211)"/>
</clipPath>
</defs>
</svg>
