<svg width="44" height="45" viewBox="0 0 44 45" fill="none" xmlns="http://www.w3.org/2000/svg">
<path d="M18.3351 17.1665C18.3351 17.6528 18.1419 18.1191 17.7981 18.4629C17.4543 18.8067 16.9879 18.9999 16.5017 18.9999C16.0154 18.9999 15.5491 18.8067 15.2053 18.4629C14.8615 18.1191 14.6683 17.6528 14.6683 17.1665C14.6683 16.6803 14.8615 16.2139 15.2053 15.8701C15.5491 15.5263 16.0154 15.3331 16.5017 15.3331C16.9879 15.3331 17.4543 15.5263 17.7981 15.8701C18.1419 16.2139 18.3351 16.6803 18.3351 17.1665ZM27.502 18.9999C27.9883 18.9999 28.4546 18.8067 28.7984 18.4629C29.1422 18.1191 29.3354 17.6528 29.3354 17.1665C29.3354 16.6803 29.1422 16.2139 28.7984 15.8701C28.4546 15.5263 27.9883 15.3331 27.502 15.3331C27.0158 15.3331 26.5494 15.5263 26.2056 15.8701C25.8618 16.2139 25.6686 16.6803 25.6686 17.1665C25.6686 17.6528 25.8618 18.1191 26.2056 18.4629C26.5494 18.8067 27.0158 18.9999 27.502 18.9999ZM3.66797 11.6663C3.66797 9.72136 4.44061 7.85605 5.81592 6.48074C7.19122 5.10543 9.05654 4.33279 11.0015 4.33279H33.0022C34.9472 4.33279 36.8125 5.10543 38.1878 6.48074C39.5631 7.85605 40.3357 9.72136 40.3357 11.6663V28.1668C40.3362 28.4078 40.2891 28.6464 40.1972 28.8691C40.1054 29.0919 39.9705 29.2943 39.8004 29.4649L28.8001 40.4652C28.6295 40.6353 28.427 40.7702 28.2043 40.8621C27.9816 40.9539 27.7429 41.001 27.502 41.0005H11.0015C9.05654 41.0005 7.19122 40.2279 5.81592 38.8526C4.44061 37.4773 3.66797 35.612 3.66797 33.667V11.6663ZM11.0015 7.99957C10.029 7.99957 9.09637 8.38589 8.40872 9.07354C7.72106 9.76119 7.33474 10.6939 7.33474 11.6663V33.667C7.33474 34.6395 7.72106 35.5721 8.40872 36.2598C9.09637 36.9475 10.029 37.3338 11.0015 37.3338H22.0018V30.0369H21.9872C19.5011 30.0369 17.6897 28.7829 16.5787 27.6645C15.9231 27.0031 15.3606 26.2555 14.9066 25.4424L14.8773 25.3874L14.87 25.3691L14.8663 25.3618L14.8626 25.3581C14.654 24.918 14.6288 24.4131 14.7925 23.9545C14.9561 23.4958 15.2953 23.1209 15.7353 22.9123C16.1754 22.7037 16.6803 22.6785 17.1389 22.8422C17.5976 23.0058 17.9725 23.345 18.1811 23.785C18.2177 23.8584 18.2813 23.961 18.3717 24.093C18.5514 24.3644 18.8191 24.7237 19.1748 25.0757C19.8898 25.7944 20.8211 26.3701 21.9872 26.3701C22.3538 26.3717 22.7181 26.3123 23.0652 26.1941C24.3486 24.0784 26.677 22.6667 29.3354 22.6667H36.669V11.6663C36.669 10.6939 36.2826 9.76119 35.595 9.07354C34.9073 8.38589 33.9747 7.99957 33.0022 7.99957H11.0015ZM36.669 26.3334H29.3354C28.3629 26.3334 27.4303 26.7198 26.7426 27.4074C26.0549 28.0951 25.6686 29.0277 25.6686 30.0002V37.3338H26.743L36.669 27.4078V26.3334Z" fill="#586580"/>
</svg>
