<svg width="44" height="44" viewBox="0 0 44 44" fill="none" xmlns="http://www.w3.org/2000/svg">
<path d="M40.5606 5.5C40.5606 4.95299 40.3433 4.42839 39.9565 4.04159C39.5697 3.6548 39.0451 3.4375 38.4981 3.4375C30.8015 3.4375 23.0293 11.7803 18.5778 17.5312C16.9518 17.1114 15.2514 17.0695 13.6067 17.4085C11.962 17.7476 10.4168 18.4587 9.08947 19.4874C7.76216 20.5161 6.68798 21.835 5.94927 23.343C5.21055 24.8511 4.82692 26.5082 4.82776 28.1875C4.82776 30.25 4.29495 32.0908 3.24136 33.6462C2.79895 34.3206 2.24912 34.9181 1.6137 35.4148C1.24324 35.6553 0.960743 36.0094 0.808586 36.4241C0.65643 36.8387 0.642819 37.2915 0.769795 37.7145C0.899463 38.1425 1.16396 38.5171 1.52386 38.7826C1.88376 39.048 2.3198 39.19 2.76698 39.1875H15.8295C17.5071 39.1855 19.1621 38.7997 20.6678 38.0598C22.1735 37.3198 23.4899 36.2453 24.5165 34.9183C25.543 33.5914 26.2525 32.0472 26.5905 30.404C26.9286 28.7607 26.8862 27.0619 26.4668 25.4375C32.2229 20.9773 40.5606 13.2 40.5606 5.5ZM36.0265 7.97328C35.339 10.1939 33.7664 12.6981 31.3996 15.3484C30.884 15.9311 30.3409 16.5 29.7926 17.0483C28.9564 15.9993 28.0052 15.0474 26.9567 14.2106C27.505 13.6623 28.0721 13.1244 28.6548 12.6036C31.3051 10.2352 33.8076 8.66766 36.0265 7.97328ZM15.8226 35.0625H7.21683C8.3877 32.9622 8.98854 30.592 8.95964 28.1875C8.95964 26.8278 9.36285 25.4985 10.1183 24.368C10.8737 23.2374 11.9474 22.3562 13.2037 21.8358C14.4599 21.3155 15.8423 21.1793 17.1759 21.4446C18.5095 21.7099 19.7345 22.3647 20.696 23.3261C21.6575 24.2876 22.3123 25.5126 22.5775 26.8463C22.8428 28.1799 22.7067 29.5622 22.1863 30.8184C21.666 32.0747 20.7848 33.1484 19.6542 33.9039C18.5236 34.6593 17.1944 35.0625 15.8346 35.0625H15.8226ZM22.3848 19.3669C22.921 18.6914 23.5106 17.9764 24.1431 17.2442C25.1291 17.9961 26.0095 18.8771 26.7607 19.8636C26.0654 20.4642 25.3577 21.0505 24.6381 21.6219C23.9997 20.7654 23.2408 20.0059 22.3848 19.3669Z" fill="#586580"/>
</svg>
