<svg width="32" height="32" viewBox="0 0 32 32" fill="none" xmlns="http://www.w3.org/2000/svg">
<path d="M1.33398 3.16666C1.33398 2.68043 1.52714 2.21412 1.87096 1.8703C2.21477 1.52648 2.68109 1.33333 3.16732 1.33333H28.834C29.3202 1.33333 29.7865 1.52648 30.1303 1.8703C30.4742 2.21412 30.6673 2.68043 30.6673 3.16666V6.83333C30.6673 7.31956 30.4742 7.78587 30.1303 8.12969C29.7865 8.47351 29.3202 8.66666 28.834 8.66666H3.16732C2.68109 8.66666 2.21477 8.47351 1.87096 8.12969C1.52714 7.78587 1.33398 7.31956 1.33398 6.83333V3.16666ZM1.33398 17.8333C1.33398 17.3471 1.52714 16.8808 1.87096 16.537C2.21477 16.1931 2.68109 16 3.16732 16H14.1673C14.6535 16 15.1199 16.1931 15.4637 16.537C15.8075 16.8808 16.0007 17.3471 16.0007 17.8333V28.8333C16.0007 29.3196 15.8075 29.7859 15.4637 30.1297C15.1199 30.4735 14.6535 30.6667 14.1673 30.6667H3.16732C2.68109 30.6667 2.21477 30.4735 1.87096 30.1297C1.52714 29.7859 1.33398 29.3196 1.33398 28.8333V17.8333ZM23.334 17.8333C23.334 17.3471 23.5271 16.8808 23.871 16.537C24.2148 16.1931 24.6811 16 25.1673 16H28.834C29.3202 16 29.7865 16.1931 30.1303 16.537C30.4742 16.8808 30.6673 17.3471 30.6673 17.8333V28.8333C30.6673 29.3196 30.4742 29.7859 30.1303 30.1297C29.7865 30.4735 29.3202 30.6667 28.834 30.6667H25.1673C24.6811 30.6667 24.2148 30.4735 23.871 30.1297C23.5271 29.7859 23.334 29.3196 23.334 28.8333V17.8333Z" stroke="#586580" stroke-width="2" stroke-linecap="round" stroke-linejoin="round"/>
</svg>
