<svg width="44" height="45" viewBox="0 0 44 45" fill="none" xmlns="http://www.w3.org/2000/svg">
<g clip-path="url(#clip0_79_838)">
<path d="M14.8993 11.1378C14.7819 10.7781 14.5525 10.4654 14.2446 10.2455C13.9367 10.0255 13.5665 9.90994 13.1882 9.91556H13.0415C12.6595 9.9066 12.2847 10.0205 11.9723 10.2405C11.6598 10.4606 11.4263 10.7751 11.306 11.1378L1.39377 32.7956C1.28069 33.0191 1.22206 33.2662 1.22266 33.5167C1.22266 33.8408 1.35143 34.1517 1.58064 34.3809C1.80985 34.6101 2.12073 34.7389 2.44488 34.7389C2.73646 34.7431 3.02174 34.654 3.25918 34.4848C3.49661 34.3155 3.67379 34.0748 3.76488 33.7978L6.30711 28.1144H19.7515L22.2938 33.7244C22.394 34.0113 22.5781 34.2614 22.8222 34.4422C23.0663 34.6231 23.3591 34.7265 23.6627 34.7389C24.0127 34.7389 24.3485 34.5998 24.596 34.3523C24.8436 34.1047 24.9827 33.769 24.9827 33.4189C24.9691 33.1781 24.9111 32.9419 24.8115 32.7222L14.8993 11.1378ZM7.43155 25.6456L13.0415 13.1544L18.6638 25.6456H7.43155Z" fill="#586580"/>
<path d="M39.4051 18.3978C38.6349 17.7162 37.737 17.1945 36.7634 16.863C35.7898 16.5315 34.7601 16.3968 33.734 16.4667C31.7541 16.4613 29.7958 16.878 27.9896 17.6889C27.7811 17.7853 27.6041 17.9385 27.4787 18.1309C27.3534 18.3233 27.2847 18.5471 27.2807 18.7767C27.3038 19.0713 27.433 19.3476 27.6442 19.5544C27.8555 19.7611 28.1345 19.8843 28.4296 19.9011C28.5928 19.8953 28.7539 19.8622 28.9062 19.8033C30.3326 19.1493 31.8837 18.8115 33.4529 18.8133C36.7529 18.8133 38.684 20.4389 38.684 23.6045V24.2156C36.9294 23.7044 35.1093 23.4532 33.2818 23.47C28.8329 23.47 25.7773 25.4378 25.7773 29.1411V29.2022C25.7773 32.8078 29.0773 34.6778 32.3407 34.6778C33.5629 34.7134 34.7759 34.457 35.8791 33.9298C36.9823 33.4026 37.9439 32.6199 38.684 31.6467V33.2111C38.684 33.5353 38.8128 33.8461 39.042 34.0754C39.2712 34.3046 39.5821 34.4333 39.9062 34.4333C40.0731 34.4336 40.2383 34.3998 40.3915 34.3338C40.5448 34.2679 40.683 34.1712 40.7975 34.0498C40.912 33.9285 41.0004 33.7849 41.0573 33.6281C41.1143 33.4712 41.1385 33.3043 41.1285 33.1378V23.5556C41.2017 22.6242 41.0869 21.6877 40.7908 20.8016C40.4948 19.9155 40.0235 19.098 39.4051 18.3978ZM38.7207 27.8089C38.7207 30.5956 36.0685 32.5633 32.8418 32.5633C30.4707 32.5633 28.4296 31.2678 28.4296 29.0678V28.9945C28.4296 26.7945 30.2629 25.3278 33.5629 25.3278C35.3086 25.3327 37.045 25.5837 38.7207 26.0733V27.8089Z" fill="#586580"/>
</g>
<defs>
<clipPath id="clip0_79_838">
<rect width="44" height="44" fill="white" transform="translate(0 0.333344)"/>
</clipPath>
</defs>
</svg>
