<svg width="44" height="46" viewBox="0 0 44 46" fill="none" xmlns="http://www.w3.org/2000/svg">
<path d="M4.40051 24.494V30.875C4.40051 32.3668 4.97997 33.7976 6.01142 34.8525C7.04287 35.9074 8.44182 36.5 9.90051 36.5H34.1005C35.5592 36.5 36.9581 35.9074 37.9896 34.8525C39.021 33.7976 39.6005 32.3668 39.6005 30.875V15.125C39.6005 13.6332 39.021 12.2024 37.9896 11.1475C36.9581 10.0926 35.5592 9.5 34.1005 9.5H20.8521L22.3283 11.012C22.5586 11.246 22.7676 11.492 22.9553 11.75H34.1005C34.9757 11.75 35.8151 12.1056 36.434 12.7385C37.0528 13.3714 37.4005 14.2299 37.4005 15.125V30.875C37.4005 31.7701 37.0528 32.6286 36.434 33.2615C35.8151 33.8944 34.9757 34.25 34.1005 34.25H9.90051C9.02529 34.25 8.18593 33.8944 7.56706 33.2615C6.94818 32.6286 6.60051 31.7701 6.60051 30.875V26.744L4.40051 24.494ZM11.0005 3.875C11.0005 3.57663 11.1164 3.29048 11.3227 3.0795C11.529 2.86853 11.8088 2.75 12.1005 2.75C12.3922 2.75 12.672 2.86853 12.8783 3.0795C13.0846 3.29048 13.2005 3.57663 13.2005 3.875V6.5165C14.2565 6.566 15.2993 7.00475 16.1045 7.82825L20.7751 12.605C21.6 13.4489 22.0634 14.5933 22.0634 15.7865C22.0634 16.9797 21.6 18.1241 20.7751 18.968L14.5535 25.3333C14.1449 25.7513 13.6598 26.0829 13.1258 26.3092C12.5919 26.5355 12.0196 26.6519 11.4416 26.6519C10.8636 26.6519 10.2913 26.5355 9.75739 26.3092C9.22344 26.0829 8.73831 25.7513 8.32971 25.3333L3.66131 20.5565C2.83643 19.7126 2.37305 18.5682 2.37305 17.375C2.37305 16.1818 2.83643 15.0374 3.66131 14.1935L9.88291 7.82825C10.2195 7.484 10.5979 7.20725 11.0005 6.998V3.875ZM11.0005 12.875V9.869L5.86131 15.125H19.7653C19.6599 14.7734 19.4718 14.4535 19.2175 14.1935L14.5513 9.419C14.1886 9.04867 13.7108 8.81949 13.2005 8.771V12.875C13.2005 13.1734 13.0846 13.4595 12.8783 13.6705C12.672 13.8815 12.3922 14 12.1005 14C11.8088 14 11.529 13.8815 11.3227 13.6705C11.1164 13.4595 11.0005 13.1734 11.0005 12.875ZM4.57211 17.375C4.57211 17.951 4.78771 18.527 5.21671 18.9657L9.88291 23.738C10.0872 23.9472 10.3299 24.1132 10.5969 24.2264C10.864 24.3396 11.1503 24.3979 11.4394 24.3979C11.7285 24.3979 12.0148 24.3396 12.2819 24.2264C12.549 24.1132 12.7916 23.9472 12.9959 23.738L19.2175 17.375H4.57211ZM22.3569 19.4585L22.8299 18.8757C22.9331 18.7575 23.0595 18.6629 23.2009 18.5982C23.3424 18.5334 23.4956 18.4999 23.6505 18.4999C23.8055 18.4999 23.9587 18.5334 24.1001 18.5982C24.2415 18.6629 24.3679 18.7575 24.4711 18.8757L24.9441 19.4608C25.2169 19.814 25.5821 20.3158 25.9517 20.9008C26.6513 22.019 27.5005 23.6637 27.5005 25.25C27.5005 27.5203 26.0199 29.75 23.6505 29.75C21.2789 29.75 19.8005 27.5203 19.8005 25.25C19.8005 23.6637 20.6497 22.019 21.3493 20.903C21.7167 20.3158 22.0819 19.814 22.3569 19.4585ZM23.6505 21.4408C23.4952 21.6617 23.3456 21.8868 23.2017 22.1158C22.5285 23.1912 22.0005 24.3612 22.0005 25.25C22.0005 25.9093 22.2205 26.5235 22.5461 26.9352C22.6738 27.1116 22.8403 27.2546 23.0322 27.3528C23.2241 27.4509 23.436 27.5013 23.6505 27.5C23.865 27.5013 24.0769 27.4509 24.2688 27.3528C24.4607 27.2546 24.6272 27.1116 24.7549 26.9352C25.1143 26.4508 25.3062 25.858 25.3005 25.25C25.3005 24.359 24.7725 23.1912 24.0993 22.1158C23.9554 21.8868 23.8058 21.6617 23.6505 21.4408Z" fill="#586580"/>
</svg>
