<svg width="44" height="45" viewBox="0 0 44 45" fill="none" xmlns="http://www.w3.org/2000/svg">
<path d="M32.3438 14.7266H28.9329L27.2558 12.3313C27.1659 12.203 27.0442 12.0979 26.9015 12.0251C26.7588 11.9523 26.5994 11.9142 26.4375 11.9141H18.5625C18.4006 11.9142 18.2412 11.9523 18.0985 12.0251C17.9558 12.0979 17.8341 12.203 17.7442 12.3313L16.0659 14.7266H12.6562C11.873 14.7266 11.1219 15.0229 10.5681 15.5504C10.0143 16.0778 9.70312 16.7932 9.70312 17.5391V30.6641C9.70312 31.41 10.0143 32.1254 10.5681 32.6529C11.1219 33.1803 11.873 33.4766 12.6562 33.4766H32.3438C33.127 33.4766 33.8781 33.1803 34.4319 32.6529C34.9857 32.1254 35.2969 31.41 35.2969 30.6641V17.5391C35.2969 16.7932 34.9857 16.0778 34.4319 15.5504C33.8781 15.0229 33.127 14.7266 32.3438 14.7266ZM26.9297 23.6329C26.9297 24.4673 26.6699 25.2829 26.1832 25.9767C25.6964 26.6704 25.0046 27.2112 24.1952 27.5305C23.3857 27.8498 22.4951 27.9333 21.6358 27.7706C20.7765 27.6078 19.9872 27.206 19.3677 26.616C18.7482 26.026 18.3263 25.2743 18.1554 24.4559C17.9845 23.6375 18.0722 22.7893 18.4075 22.0184C18.7428 21.2475 19.3105 20.5887 20.039 20.1251C20.7675 19.6615 21.6239 19.4141 22.5 19.4141C23.6748 19.4141 24.8015 19.8586 25.6323 20.6498C26.463 21.4409 26.9297 22.514 26.9297 23.6329Z" fill="#586580"/>
</svg>
