<svg width="44" height="44" viewBox="0 0 44 44" fill="none" xmlns="http://www.w3.org/2000/svg">
<path opacity="0.2" d="M38.5 16.5L24.9992 26.125H19.0008L5.5 16.5L22 5.5L38.5 16.5Z" fill="white"/>
<path d="M39.2631 15.3553L22.7631 4.35531C22.5372 4.20456 22.2716 4.12411 22 4.12411C21.7284 4.12411 21.4628 4.20456 21.2369 4.35531L4.73688 15.3553C4.54852 15.481 4.39411 15.6512 4.28737 15.8509C4.18063 16.0506 4.12485 16.2736 4.125 16.5V34.375C4.125 35.1043 4.41473 35.8038 4.93046 36.3195C5.44618 36.8353 6.14565 37.125 6.875 37.125H37.125C37.8543 37.125 38.5538 36.8353 39.0695 36.3195C39.5853 35.8038 39.875 35.1043 39.875 34.375V16.5C39.8751 16.2736 39.8194 16.0506 39.7126 15.8509C39.6059 15.6512 39.4515 15.481 39.2631 15.3553ZM16.6238 26.125L6.875 33V19.1692L16.6238 26.125ZM19.4373 27.5H24.5627L34.2959 34.375H9.70406L19.4373 27.5ZM27.3762 26.125L37.125 19.1692V33L27.3762 26.125ZM22 7.15172L36.0783 16.5378L24.5627 24.75H19.4408L7.92516 16.5378L22 7.15172Z" fill="#586580"/>
</svg>
