<svg width="44" height="45" viewBox="0 0 44 45" fill="none" xmlns="http://www.w3.org/2000/svg">
<path d="M21.9993 41C19.5918 41 17.2078 40.5258 14.9835 39.6045C12.7592 38.6832 10.7381 37.3327 9.03572 35.6303C5.59756 32.1922 3.66602 27.529 3.66602 22.6667C3.66602 17.8044 5.59756 13.1412 9.03572 9.70307C12.4739 6.2649 17.137 4.33336 21.9993 4.33336C32.0827 4.33336 40.3327 11.6667 40.3327 20.8334C40.3327 23.7507 39.1738 26.5486 37.1109 28.6115C35.048 30.6744 32.2501 31.8334 29.3327 31.8334H26.0327C25.4827 31.8334 25.116 32.2 25.116 32.75C25.116 32.9334 25.2993 33.1167 25.2993 33.3C26.0327 34.2167 26.3993 35.3167 26.3993 36.4167C26.5827 38.9834 24.566 41 21.9993 41ZM21.9993 8.00003C18.1095 8.00003 14.379 9.54526 11.6284 12.2958C8.87792 15.0463 7.33268 18.7769 7.33268 22.6667C7.33268 26.5565 8.87792 30.2871 11.6284 33.0376C14.379 35.7881 18.1095 37.3334 21.9993 37.3334C22.5493 37.3334 22.916 36.9667 22.916 36.4167C22.916 36.05 22.7327 35.8667 22.7327 35.6834C21.9993 34.7667 21.6327 33.85 21.6327 32.75C21.6327 30.1834 23.6493 28.1667 26.216 28.1667H29.3327C31.2776 28.1667 33.1429 27.3941 34.5181 26.0188C35.8934 24.6435 36.666 22.7783 36.666 20.8334C36.666 13.6834 30.066 8.00003 21.9993 8.00003ZM11.916 19C13.3827 19 14.666 20.2834 14.666 21.75C14.666 23.2167 13.3827 24.5 11.916 24.5C10.4493 24.5 9.16602 23.2167 9.16602 21.75C9.16602 20.2834 10.4493 19 11.916 19ZM17.416 11.6667C18.8827 11.6667 20.166 12.95 20.166 14.4167C20.166 15.8834 18.8827 17.1667 17.416 17.1667C15.9493 17.1667 14.666 15.8834 14.666 14.4167C14.666 12.95 15.9493 11.6667 17.416 11.6667ZM26.5827 11.6667C28.0493 11.6667 29.3327 12.95 29.3327 14.4167C29.3327 15.8834 28.0493 17.1667 26.5827 17.1667C25.116 17.1667 23.8327 15.8834 23.8327 14.4167C23.8327 12.95 25.116 11.6667 26.5827 11.6667ZM32.0827 19C33.5493 19 34.8327 20.2834 34.8327 21.75C34.8327 23.2167 33.5493 24.5 32.0827 24.5C30.616 24.5 29.3327 23.2167 29.3327 21.75C29.3327 20.2834 30.616 19 32.0827 19Z" fill="#586580"/>
</svg>
