<svg width="43" height="41" viewBox="0 0 43 41" fill="none" xmlns="http://www.w3.org/2000/svg">
<g clip-path="url(#clip0_65_437)">
<path d="M26.9508 33.8694C27.7809 34.5476 28.6018 35.1742 29.4024 35.7556C25.2152 38.773 21.6409 40.442 21.4976 40.507C21.3536 40.442 17.7843 38.773 13.5977 35.7556C14.3981 35.1782 15.2225 34.5478 16.0483 33.8694C17.9283 32.3352 19.8225 30.5603 21.4977 28.5551C23.177 30.5603 25.0713 32.3352 26.9508 33.8694Z" fill="#6B57FF"/>
<path d="M29.4002 0.713135C26.4512 0.713135 23.7259 1.65272 21.498 3.24902C24.944 5.71668 27.1907 9.74779 27.1907 14.3105C27.1907 16.1928 26.9226 18.255 26.2083 20.4108C26.0636 20.8424 25.9111 21.265 25.7428 21.677C24.7236 24.1909 23.2248 26.4909 21.4986 28.5551C23.177 30.5582 25.0694 32.3373 26.9486 33.8694C27.7788 34.5476 28.6034 35.1781 29.4047 35.7556C30.206 35.1782 31.0316 34.5478 31.8561 33.8694C35.6692 30.7577 39.5403 26.6415 41.5497 21.677C41.7175 21.265 41.8722 20.8424 42.0155 20.4108C42.7303 18.255 42.9992 16.1928 42.9992 14.3105C42.9993 6.79946 36.9117 0.713135 29.4002 0.713135Z" fill="#FF318C"/>
<path d="M16.7901 20.4109C16.0754 18.2552 15.8066 16.1929 15.8066 14.3107C15.8066 9.74808 18.054 5.71683 21.499 3.24917C19.2709 1.65287 16.5424 0.713287 13.594 0.713287C6.08745 0.713287 0 6.79947 0 14.3107C0 16.1929 0.268975 18.2552 0.982684 20.4109C1.12222 20.8426 1.2751 21.2651 1.4489 21.6772C3.45863 26.6417 7.32886 30.7579 11.1428 33.8696C11.9718 34.5478 12.7971 35.1783 13.5991 35.7558C14.4002 35.1784 15.2242 34.5479 16.0495 33.8696C17.9286 32.3375 19.8221 30.5584 21.4993 28.5552C19.7738 26.4911 18.2757 24.1912 17.2554 21.6772C17.0826 21.2651 16.9288 20.8424 16.7901 20.4109Z" fill="#07C3F2"/>
<path d="M26.2093 20.4109C26.9236 18.2552 27.1917 16.1929 27.1917 14.3107C27.1917 9.74809 24.9452 5.71684 21.499 3.24918C18.054 5.71684 15.8066 9.74794 15.8066 14.3107C15.8066 16.1929 16.0755 18.2552 16.7902 20.4109C16.9289 20.8426 17.0826 21.2651 17.2555 21.6772C18.2758 24.191 19.774 26.4911 21.4995 28.5553C23.2256 26.4911 24.7246 24.1912 25.7437 21.6772C25.9121 21.2651 26.0645 20.8424 26.2093 20.4109Z" fill="#FDB60D"/>
</g>
<defs>
<clipPath id="clip0_65_437">
<rect width="43" height="39.7939" fill="white" transform="translate(0 0.713135)"/>
</clipPath>
</defs>
</svg>
