<svg width="19" height="19" viewBox="0 0 19 19" fill="none" xmlns="http://www.w3.org/2000/svg">
<g id="heroicons-solid/plus">
<path id="Vector (Stroke)" fill-rule="evenodd" clip-rule="evenodd" d="M9.5 3.3125C9.81066 3.3125 10.0625 3.56434 10.0625 3.875V8.9375H15.125C15.4357 8.9375 15.6875 9.18934 15.6875 9.5C15.6875 9.81066 15.4357 10.0625 15.125 10.0625H10.0625V15.125C10.0625 15.4357 9.81066 15.6875 9.5 15.6875C9.18934 15.6875 8.9375 15.4357 8.9375 15.125V10.0625H3.875C3.56434 10.0625 3.3125 9.81066 3.3125 9.5C3.3125 9.18934 3.56434 8.9375 3.875 8.9375H8.9375V3.875C8.9375 3.56434 9.18934 3.3125 9.5 3.3125Z" fill="#202020"/>
</g>
</svg>
