<svg width="59" height="16" viewBox="0 0 59 16" fill="none" xmlns="http://www.w3.org/2000/svg">
<g clip-path="url(#clip0_2206_2329)">
<path fill-rule="evenodd" clip-rule="evenodd" d="M5.14645 8.35355C4.95118 8.15829 4.95118 7.84171 5.14645 7.64645L10.1464 2.64645C10.3417 2.45118 10.6583 2.45118 10.8536 2.64645C11.0488 2.84171 11.0488 3.15829 10.8536 3.35355L6.20711 8L10.8536 12.6464C11.0488 12.8417 11.0488 13.1583 10.8536 13.3536C10.6583 13.5488 10.3417 13.5488 10.1464 13.3536L5.14645 8.35355Z" fill="#FF318C"/>
<path d="M25.078 15V4.57H29.474C31.434 4.57 32.638 5.662 32.638 7.398C32.638 8.182 32.33 8.882 31.7 9.372C32.666 9.974 33.072 10.856 33.072 11.85C33.072 13.824 31.714 15 29.488 15H25.078ZM26.73 8.728H29.516C30.412 8.728 31 8.154 31 7.328C31 6.502 30.412 5.998 29.516 5.998H26.73V8.728ZM26.73 13.53H29.614C30.706 13.53 31.42 12.886 31.42 11.864C31.42 10.842 30.706 10.184 29.614 10.184H26.73V13.53ZM36.8854 15.168C35.3454 15.168 34.3094 14.314 34.3094 12.998C34.3094 11.78 35.1214 10.884 36.8714 10.59L39.2794 10.198V9.904C39.2794 9.162 38.6774 8.63 37.7674 8.63C36.9274 8.63 36.2694 9.106 35.9754 9.806L34.6594 9.148C35.0934 8.042 36.3674 7.258 37.8094 7.258C39.6014 7.258 40.8614 8.336 40.8614 9.904V15H39.3494V14.118C38.7754 14.79 37.9354 15.168 36.8854 15.168ZM35.9614 12.942C35.9614 13.516 36.4514 13.922 37.1374 13.922C38.4114 13.922 39.2794 13.012 39.2794 11.85V11.444L37.1794 11.808C36.3394 11.948 35.9614 12.354 35.9614 12.942ZM46.3091 15.168C44.0551 15.168 42.4031 13.46 42.4031 11.192C42.4031 8.938 44.0411 7.258 46.3091 7.258C47.8491 7.258 49.1791 8.126 49.6551 9.386L48.2691 10.03C47.9471 9.246 47.2191 8.728 46.3091 8.728C45.0071 8.728 44.0551 9.764 44.0551 11.206C44.0551 12.648 45.0071 13.698 46.3091 13.698C47.2191 13.698 47.9331 13.18 48.2691 12.382L49.6551 13.04C49.1931 14.258 47.8631 15.168 46.3091 15.168ZM51.2013 15V4.402H52.7833V10.716L55.9613 7.426H57.9353L55.0793 10.464L58.0613 15H56.2413L53.9173 11.5L52.7833 12.704V15H51.2013Z" fill="#FF318C"/>
</g>
<defs>
<clipPath id="clip0_2206_2329">
<rect width="59" height="16" rx="6" fill="white"/>
</clipPath>
</defs>
</svg>
