<svg width="101" height="24" viewBox="0 0 101 24" fill="none" xmlns="http://www.w3.org/2000/svg">
<path d="M15.7676 19.6483C16.2465 20.0394 16.7199 20.4009 17.1818 20.7361C14.7665 22.4765 12.7047 23.4392 12.6221 23.4766C12.5391 23.4392 10.4803 22.4765 8.06543 20.7361C8.5273 20.4032 9.00266 20.0394 9.4789 19.6483C10.5633 18.7632 11.656 17.7394 12.6221 16.5828C13.5907 17.7394 14.6835 18.7632 15.7676 19.6483Z" fill="#6B57FF"/>
<path d="M17.1808 0.52356C15.48 0.52356 13.9079 1.06542 12.623 1.98634C14.6107 3.40974 15.9065 5.7349 15.9065 8.36673C15.9065 9.45242 15.7517 10.642 15.3398 11.8854C15.2565 12.1344 15.1683 12.378 15.0713 12.6157C14.4837 14.0658 13.619 15.3924 12.6234 16.5829C13.5915 17.7385 14.683 18.7646 15.7669 19.6484C16.2457 20.0395 16.7216 20.4033 17.1836 20.7362C17.6457 20.4033 18.1219 20.0395 18.5976 19.6484C20.797 17.8536 23.0298 15.4795 24.1889 12.6157C24.2857 12.3782 24.3749 12.1344 24.4576 11.8854C24.87 10.642 25.025 9.45242 25.025 8.36673C25.0248 4.03409 21.5134 0.52356 17.1808 0.52356Z" fill="#FF318C"/>
<path d="M9.9065 11.8853C9.49411 10.6419 9.33926 9.4523 9.33926 8.36661C9.33926 5.73495 10.6355 3.40962 12.6226 1.98622C11.3373 1.06549 9.76336 0.523438 8.06272 0.523438C3.7331 0.523438 0.22168 4.03396 0.22168 8.36643C0.22168 9.45212 0.376879 10.6417 0.788558 11.8851C0.869084 12.1341 0.957236 12.3777 1.05745 12.6154C2.21675 15.4792 4.44896 17.8533 6.6489 19.6481C7.12709 20.0392 7.60316 20.403 8.06574 20.7359C8.52761 20.403 9.00314 20.0392 9.47921 19.6481C10.5629 18.7645 11.655 17.7382 12.6228 16.5826C11.6274 15.3921 10.7632 14.0655 10.1749 12.6154C10.0752 12.378 9.98631 12.1343 9.9065 11.8853Z" fill="#07C3F2"/>
<path d="M15.339 11.8853C15.7508 10.6419 15.9057 9.45228 15.9057 8.3666C15.9057 5.73494 14.6096 3.40961 12.6222 1.98621C10.6349 3.40961 9.33887 5.73476 9.33887 8.3666C9.33887 9.45228 9.49371 10.6419 9.9061 11.8853C9.98592 12.1343 10.0746 12.3778 10.1745 12.6155C10.7628 14.0657 11.627 15.3923 12.6224 16.5828C13.6179 15.3923 14.4826 14.0657 15.0703 12.6155C15.1676 12.378 15.2556 12.1343 15.339 11.8853Z" fill="#FDB60D"/>
<path d="M35.7928 17.2827H35.1406C35 17.2827 34.7866 17.2409 34.5702 16.8682C34.3671 16.5195 34.2639 16.0574 34.2639 15.4961V2.25034C34.2639 1.75458 34.0996 1.33776 33.7749 1.01335C33.4499 0.690002 33.0336 0.523804 32.5373 0.523804C32.0414 0.523804 31.6242 0.690182 31.3005 1.01371C30.9756 1.33759 30.8115 1.75441 30.8115 2.25051V15.4962C30.8115 16.4707 30.9898 17.3664 31.3429 18.1527C31.7041 18.9608 32.2223 19.5986 32.885 20.0509C33.5523 20.5063 34.3114 20.7345 35.1404 20.7345H35.1933C35.8047 20.7345 36.3185 20.5859 36.7206 20.2876C37.1566 19.9662 37.3881 19.5227 37.3881 19.0096C37.3881 18.5225 37.2421 18.1119 36.9542 17.7893C36.6586 17.4569 36.2563 17.2827 35.7928 17.2827Z" fill="#2E266F"/>
<path d="M49.5828 6.51995C48.4373 5.86864 47.1269 5.53979 45.6888 5.53979C44.2336 5.53979 42.911 5.86864 41.7566 6.51995C40.5991 7.17196 39.6858 8.08915 39.0427 9.24774C38.4032 10.3991 38.0781 11.7295 38.0781 13.2017C38.0781 14.659 38.4032 15.9802 39.0427 17.1319C39.6862 18.2905 40.5993 19.2078 41.7566 19.86C42.9101 20.5106 44.2325 20.8393 45.6888 20.8393C47.1453 20.8393 48.4639 20.5097 49.6085 19.86C50.7566 19.2078 51.6653 18.2903 52.309 17.1319C52.9489 15.9793 53.2735 14.6584 53.2735 13.2017C53.2735 11.7295 52.9438 10.398 52.2942 9.24632C51.6428 8.08897 50.7305 7.17196 49.5828 6.51995ZM45.6888 17.6475C44.8849 17.6475 44.1554 17.4565 43.5222 17.0804C42.8895 16.7064 42.3859 16.1787 42.0257 15.5127C41.6626 14.8429 41.4782 14.0655 41.4782 13.2015C41.4782 12.3399 41.6626 11.5573 42.0264 10.8762C42.3874 10.2027 42.8904 9.67148 43.5224 9.29776C44.1554 8.92209 44.8847 8.7323 45.6886 8.7323C46.4923 8.7323 47.2209 8.92191 47.8552 9.29776C48.4861 9.67112 48.9838 10.2016 49.3357 10.8728C49.6924 11.5553 49.8728 12.3383 49.8728 13.2015C49.8728 14.0657 49.6924 14.844 49.3366 15.518C48.9852 16.1805 48.4866 16.7064 47.8552 17.0804C47.2211 17.4565 46.4924 17.6475 45.6888 17.6475Z" fill="#2E266F"/>
<path d="M67.6509 5.87076C67.4177 5.75458 67.1524 5.69604 66.8631 5.69604C66.5649 5.69604 66.2792 5.77196 66.0156 5.9206C65.7435 6.07509 65.5308 6.29893 65.3847 6.59461L61.2883 15.5235L57.1401 6.58148C56.9995 6.30159 56.796 6.0797 56.5335 5.92432C56.2767 5.77355 56.0023 5.69604 55.719 5.69604C55.4397 5.69604 55.1862 5.75812 54.9826 5.87164C54.1867 6.27037 54.0186 6.87823 54.0186 7.31864C54.0186 7.5572 54.0693 7.78051 54.1642 7.96906L59.6877 19.6156C59.8784 19.998 60.0955 20.2671 60.3493 20.4393C60.6105 20.6188 60.9364 20.7098 61.3167 20.7098C61.8094 20.7098 62.4847 20.517 62.8983 19.6074L68.4138 7.97757C68.53 7.74468 68.5894 7.51374 68.5894 7.29168C68.5894 6.9827 68.5034 6.69766 68.3365 6.44491C68.1701 6.19694 67.9363 6.0013 67.6509 5.87076Z" fill="#2E266F"/>
<path d="M80.4453 6.48625C79.4091 5.85853 78.1698 5.53979 76.762 5.53979C75.3405 5.53979 74.0454 5.86971 72.9171 6.52101C71.786 7.17374 70.8915 8.09713 70.2573 9.26424C69.6262 10.4228 69.3076 11.7492 69.3076 13.2015C69.3076 14.6604 69.6459 15.9857 70.3151 17.1393C70.9861 18.296 71.9293 19.2124 73.1222 19.8622C74.3075 20.5115 75.6641 20.8391 77.1527 20.8391C77.9947 20.8391 78.8855 20.6813 79.8002 20.373C80.7197 20.066 81.5033 19.6539 82.12 19.1654C82.5042 18.8772 82.7064 18.4895 82.7064 18.0453C82.7064 17.587 82.4969 17.1773 82.0984 16.8456C81.8275 16.6008 81.4689 16.4754 81.032 16.4754C80.6069 16.4754 80.2301 16.6037 79.916 16.8486C79.5898 17.0969 79.1617 17.313 78.6443 17.4873C78.1279 17.662 77.6263 17.7509 77.1531 17.7509C75.9227 17.7509 74.9173 17.4173 74.0759 16.7278C73.366 16.1475 72.9045 15.4272 72.6736 14.5368H82.0485C82.5062 14.5368 82.8948 14.3885 83.2013 14.0948C83.5113 13.7938 83.6695 13.4158 83.6695 12.9669C83.6695 11.5367 83.3928 10.2478 82.8448 9.13582C82.291 8.00827 81.4836 7.1168 80.4453 6.48625ZM73.9565 9.56328C74.6632 8.94124 75.607 8.62765 76.7622 8.62765C77.8019 8.62765 78.6166 8.92901 79.2514 9.54874C79.7913 10.0748 80.1574 10.7653 80.3445 11.607H72.7096C72.9389 10.7669 73.3499 10.0972 73.9565 9.56328Z" fill="#2E266F"/>
<path d="M100.289 1.0131C99.9654 0.689753 99.5404 0.52356 99.0268 0.52356C98.5323 0.52356 98.1131 0.687801 97.7811 1.00849C97.4443 1.33308 97.2749 1.76036 97.2749 2.27598V7.27607C96.7947 6.84737 96.2569 6.4889 95.6691 6.206C94.7463 5.76363 93.74 5.53979 92.6732 5.53979C91.35 5.53979 90.132 5.87555 89.0537 6.54034C87.976 7.20229 87.1191 8.12959 86.5045 9.29403C85.8933 10.4523 85.584 11.759 85.584 13.1776C85.584 14.5988 85.9173 15.9078 86.5757 17.071C87.2357 18.2335 88.1607 19.1638 89.3254 19.8309C90.4847 20.5 91.7886 20.8396 93.1941 20.8396C94.6005 20.8396 95.8958 20.4994 97.0406 19.8309C98.1848 19.164 99.1032 18.2337 99.7717 17.0735C100.44 15.9094 100.779 14.6001 100.779 13.1777V2.27652C100.779 1.76338 100.614 1.33769 100.289 1.0131ZM93.1937 17.6475C92.4078 17.6475 91.6886 17.4543 91.0566 17.0712C90.4218 16.6858 89.9124 16.1489 89.5438 15.4735C89.1717 14.7932 88.9828 14.0226 88.9828 13.1774C88.9828 12.3336 89.171 11.5654 89.5424 10.8952C89.9111 10.2268 90.4198 9.694 91.0564 9.30786C91.6891 8.92563 92.4083 8.73247 93.1936 8.73247C93.979 8.73247 94.6978 8.92563 95.3311 9.30786C95.9636 9.6924 96.4689 10.2247 96.8297 10.8914C97.1942 11.5635 97.3774 12.3322 97.3774 13.1776C97.3774 14.0229 97.1942 14.7957 96.8288 15.4756C96.4684 16.151 95.9621 16.6876 95.3311 17.0721C94.6987 17.4542 93.9802 17.6475 93.1937 17.6475Z" fill="#2E266F"/>
</svg>
