<svg width="64" height="60" viewBox="0 0 64 60" fill="none" xmlns="http://www.w3.org/2000/svg">
<path id="Vector" d="M42.957 0C39.0555 0 35.2977 1.0639 31.9985 3.08719C28.6972 1.06433 24.9368 0 21.034 0C9.43604 0 0 9.43818 0 21.0396C0 24.1511 0.491853 27.2276 1.46745 30.197C1.72724 30.9709 1.94608 31.5591 2.16364 32.0749C4.68432 38.3068 9.42581 44.2914 16.2503 49.8566C17.3483 50.7588 18.5312 51.6675 19.7658 52.5569L21.0396 53.4749L21.0413 53.4736C26.5331 57.2612 31.0438 59.3404 31.0916 59.3622L32.0032 59.7785L32.9127 59.3571C33.1123 59.2645 37.6149 57.1525 42.9587 53.4736L42.9613 53.4753L44.2368 52.5569C45.4082 51.7135 46.5885 50.8053 47.7407 49.8609C54.5695 44.2952 59.3118 38.3107 61.8398 32.0655C62.0932 31.4307 62.3244 30.7968 62.5245 30.1885C63.5035 27.2348 64 24.157 64 21.0391C63.9996 9.43818 54.5597 0 42.957 0ZM31.9981 8.47964C35.5985 11.6278 37.7143 16.2136 37.7143 21.0383C37.7143 23.6959 37.292 26.3109 36.4602 28.8234C36.2597 29.4249 36.0677 29.9539 35.8715 30.4364C34.9372 32.7267 33.6404 35.0132 31.9981 37.2655C30.36 35.0128 29.0547 32.7182 28.1119 30.4108C27.9157 29.9454 27.728 29.4292 27.5317 28.8192C26.7042 26.3109 26.2819 23.6921 26.2819 21.0383C26.2819 16.2098 28.3977 11.6278 31.9981 8.47964ZM21.0349 48.0837C20.3353 47.5505 19.657 47.0173 19.0086 46.4883C12.7506 41.3863 8.44211 35.9858 6.18974 30.4112C6.00204 29.9714 5.81861 29.4765 5.60105 28.8239C4.77348 26.307 4.35543 23.6878 4.35543 21.0387C4.35543 11.8416 11.8377 4.35499 21.0349 4.35499C23.5645 4.35499 26.0174 4.91809 28.2569 5.99734C24.247 9.92661 21.9264 15.3523 21.9264 21.0387C21.9264 24.1613 22.4213 27.2374 23.3939 30.1676C23.62 30.8843 23.8546 31.5199 24.0935 32.083C25.2879 35.0132 26.99 37.9186 29.1613 40.7426C27.3782 42.7092 25.3348 44.6373 23.0569 46.4887C22.3914 47.0343 21.7131 47.5675 21.0349 48.0837ZM31.9938 54.9603C30.6586 54.282 27.9711 52.8487 24.7504 50.7115C24.7504 50.7115 24.7376 50.72 24.7078 50.7379C25.0789 50.447 25.45 50.1612 25.8126 49.863C28.0906 48.0078 30.1638 46.0711 31.9981 44.0913C33.8367 46.0749 35.9056 48.0078 38.1793 49.8587C38.5291 50.1445 38.8832 50.4261 39.2457 50.7119C36.0378 52.8359 33.3418 54.2777 31.9938 54.9603ZM58.387 28.8234C58.2164 29.3528 58.0159 29.8984 57.7983 30.4402C55.5545 35.9901 51.2417 41.3906 44.9837 46.4883C44.3183 47.039 43.64 47.5675 42.966 48.0837C42.2664 47.5547 41.5881 47.0215 40.9312 46.484C38.666 44.6369 36.6227 42.713 34.8353 40.7422C37.0066 37.9182 38.7087 35.0089 39.9074 32.0783C40.142 31.5024 40.3681 30.8838 40.5942 30.1885C41.5711 27.2404 42.0702 24.1609 42.0702 21.0378C42.0702 15.3515 39.7495 9.92577 35.7354 5.9965C37.9792 4.91724 40.4278 4.35415 42.9575 4.35415C52.1589 4.35415 59.6454 11.8407 59.6454 21.0378C59.645 23.6921 59.2227 26.3066 58.387 28.8234Z" fill="#FF318C"/>
</svg>
