<svg width="70" height="70" viewBox="0 0 70 70" fill="none" xmlns="http://www.w3.org/2000/svg">
<path opacity="0.5" d="M35.098 62.7183C50.1264 62.7183 62.3093 50.5354 62.3093 35.507C62.3093 20.4787 50.1264 8.29578 35.098 8.29578C20.0696 8.29578 7.88672 20.4787 7.88672 35.507C7.88672 50.5354 20.0696 62.7183 35.098 62.7183Z" stroke="#A5B5D4" stroke-width="1.57746"/>
<path d="M50.477 25.6478C50.477 23.9126 49.0573 22.4929 47.3221 22.4929H22.0827C20.3475 22.4929 18.9277 23.9126 18.9277 25.6478V44.5774C18.9277 46.3126 20.3475 47.7324 22.0827 47.7324H47.3221C49.0573 47.7324 50.477 46.3126 50.477 44.5774V25.6478ZM47.3221 25.6478L34.7024 33.5352L22.0827 25.6478H47.3221ZM47.3221 44.5774H22.0827V28.8028L34.7024 36.6901L47.3221 28.8028V44.5774Z" fill="#586580"/>
</svg>
