<svg width="104" height="38" viewBox="0 0 104 38" fill="none" xmlns="http://www.w3.org/2000/svg">
<path d="M0.5 19C0.5 8.78273 8.78273 0.5 19 0.5H85C95.2173 0.5 103.5 8.78273 103.5 19C103.5 29.2173 95.2173 37.5 85 37.5H19C8.78273 37.5 0.5 29.2173 0.5 19Z" stroke="#D8D8DA"/>
<path fill-rule="evenodd" clip-rule="evenodd" d="M24.7402 11.9331C26.1378 11.7709 27.5593 11.6875 29 11.6875C30.4407 11.6875 31.8622 11.7709 33.2598 11.9331C34.3829 12.0634 35.1875 13.0279 35.1875 14.1302V25.75C35.1875 25.945 35.0866 26.126 34.9207 26.2285C34.7549 26.331 34.5478 26.3403 34.3734 26.2531L29 23.5664L23.6266 26.2531C23.4522 26.3403 23.2451 26.331 23.0793 26.2285C22.9134 26.126 22.8125 25.945 22.8125 25.75V14.1302C22.8125 13.0279 23.6171 12.0634 24.7402 11.9331Z" fill="#202020"/>
<path d="M54.732 26.168C52.744 26.168 51.162 24.978 50.616 23.298L52.016 22.71C52.506 23.998 53.528 24.712 54.802 24.712C55.922 24.712 56.664 24.152 56.664 23.298C56.664 22.542 56.216 22.122 55.39 21.856L53.43 21.24C51.862 20.75 51.022 19.714 51.022 18.37C51.022 16.62 52.422 15.402 54.396 15.402C56.258 15.402 57.714 16.466 58.232 17.964L56.86 18.566C56.44 17.46 55.544 16.844 54.396 16.844C53.36 16.844 52.66 17.418 52.66 18.286C52.66 18.958 53.08 19.504 53.962 19.77L55.782 20.344C57.448 20.862 58.288 21.786 58.288 23.186C58.288 24.936 56.832 26.168 54.732 26.168ZM62.1197 26.168C60.5797 26.168 59.5437 25.314 59.5437 23.998C59.5437 22.78 60.3557 21.884 62.1057 21.59L64.5137 21.198V20.904C64.5137 20.162 63.9117 19.63 63.0017 19.63C62.1617 19.63 61.5037 20.106 61.2097 20.806L59.8937 20.148C60.3277 19.042 61.6017 18.258 63.0437 18.258C64.8357 18.258 66.0957 19.336 66.0957 20.904V26H64.5837V25.118C64.0097 25.79 63.1697 26.168 62.1197 26.168ZM61.1957 23.942C61.1957 24.516 61.6857 24.922 62.3717 24.922C63.6457 24.922 64.5137 24.012 64.5137 22.85V22.444L62.4137 22.808C61.5737 22.948 61.1957 23.354 61.1957 23.942ZM70.0068 26L67.0388 18.426H68.7608L70.7348 23.746L72.6948 18.426H74.4308L71.4488 26H70.0068ZM78.9253 26.168C76.6573 26.168 75.0613 24.432 75.0613 22.192C75.0613 19.924 76.6713 18.258 78.7993 18.258C81.0813 18.258 82.4113 19.966 82.4113 21.926C82.4113 22.164 82.3973 22.444 82.3413 22.668H76.7133C76.8113 23.942 77.7493 24.768 78.9393 24.768C79.8493 24.768 80.4933 24.306 80.8713 23.662L82.1593 24.292C81.6973 25.37 80.4653 26.168 78.9253 26.168ZM78.7993 19.588C77.7773 19.588 76.9373 20.26 76.7413 21.408H80.7313C80.6753 20.33 79.8633 19.588 78.7993 19.588Z" fill="#202020"/>
</svg>
