<svg width="56" height="55" viewBox="0 0 56 55" fill="none" xmlns="http://www.w3.org/2000/svg">
<path d="M28.098 54.7183C43.1264 54.7183 55.3093 42.5354 55.3093 27.507C55.3093 12.4787 43.1264 0.295776 28.098 0.295776C13.0696 0.295776 0.886719 12.4787 0.886719 27.507C0.886719 42.5354 13.0696 54.7183 28.098 54.7183Z" fill="#1877F2"/>
<g clip-path="url(#clip0_1860_740)">
<path d="M52.9431 23.9578C52.9431 10.0184 41.2899 -1.28164 26.9149 -1.28164C12.5399 -1.28164 0.886719 10.0184 0.886719 23.9578C0.886719 36.5555 10.4048 46.9972 22.848 48.8906V31.2536H16.2393V23.9578H22.848V18.3972C22.848 12.0716 26.7338 8.57752 32.6792 8.57752C35.5269 8.57752 38.5056 9.07048 38.5056 9.07048V15.2817H35.2235C31.9901 15.2817 30.9818 17.2273 30.9818 19.2233V23.9578H38.2005L37.0466 31.2536H30.9818V48.8906C43.4249 46.9972 52.9431 36.5555 52.9431 23.9578Z" fill="#1877F2"/>
<path d="M37.0475 31.2536L38.2015 23.9578H30.9828V19.2233C30.9828 17.2273 31.9911 15.2818 35.2244 15.2818H38.5065V9.0705C38.5065 9.0705 35.5279 8.57755 32.6802 8.57755C26.7348 8.57755 22.8489 12.0716 22.8489 18.3973V23.9578H16.2402V31.2536H22.8489V48.8906C24.1741 49.0923 25.5323 49.1973 26.9159 49.1973C28.2994 49.1973 29.6576 49.0923 30.9828 48.8906V31.2536H37.0475Z" fill="white"/>
</g>
<defs>
<clipPath id="clip0_1860_740">
<rect width="28.3944" height="44.169" fill="white" transform="translate(13.5059 5.0282)"/>
</clipPath>
</defs>
</svg>
