<svg width="56" height="56" viewBox="0 0 56 56" fill="none" xmlns="http://www.w3.org/2000/svg">
<path d="M28.098 55.1268C43.1264 55.1268 55.3093 42.9439 55.3093 27.9155C55.3093 12.8871 43.1264 0.704224 28.098 0.704224C13.0696 0.704224 0.886719 12.8871 0.886719 27.9155C0.886719 42.9439 13.0696 55.1268 28.098 55.1268Z" fill="#33DA51"/>
<path fill-rule="evenodd" clip-rule="evenodd" d="M39.3204 16.01C36.3481 13.0377 32.3925 11.3965 28.1798 11.3965C19.4973 11.3965 12.4408 18.4605 12.4333 27.1355C12.4333 29.9112 13.1593 32.6188 14.5358 35.0012L12.3047 43.1619L20.6544 40.9761C22.9537 42.2316 25.5403 42.8896 28.1798 42.8896H28.1874C36.8624 42.8896 43.9264 35.8256 43.9339 27.1506C43.9339 22.9379 42.2927 18.9824 39.3204 16.01ZM28.1874 40.2274C25.8352 40.2274 23.5285 39.592 21.5242 38.4046L21.0477 38.1248L16.0938 39.4257L17.4174 34.6003L17.1073 34.1087C15.7989 32.0289 15.1031 29.6162 15.1031 27.143C15.1031 19.9278 20.9797 14.0587 28.1949 14.0587C31.6891 14.0587 34.9791 15.4201 37.4447 17.8933C39.9179 20.3664 41.2793 23.6564 41.2717 27.1506C41.2641 34.3583 35.3951 40.2274 28.1874 40.2274ZM35.3648 30.433C34.9716 30.2364 33.0354 29.2834 32.6799 29.1549C32.3169 29.0263 32.0597 28.9582 31.795 29.3515C31.5303 29.7448 30.7816 30.6297 30.5471 30.8944C30.3202 31.1591 30.0857 31.1893 29.6925 30.9927C29.2992 30.7961 28.0286 30.3801 26.531 29.0414C25.3588 27.9977 24.5722 26.7119 24.3453 26.3187C24.1184 25.9254 24.3226 25.7136 24.5192 25.517C24.6932 25.343 24.9125 25.0556 25.1092 24.8287C25.3058 24.6018 25.3739 24.4354 25.5024 24.1707C25.631 23.906 25.5705 23.6791 25.4722 23.4825C25.3739 23.2858 24.5873 21.3496 24.2621 20.5631C23.9444 19.7992 23.6192 19.8975 23.3772 19.8899C23.1503 19.8748 22.8856 19.8748 22.6209 19.8748C22.3562 19.8748 21.9326 19.9731 21.5696 20.3664C21.2066 20.7597 20.1931 21.7127 20.1931 23.6488C20.1931 25.585 21.5998 27.4531 21.7965 27.7178C21.9931 27.9826 24.5722 31.9532 28.5202 33.6549C29.458 34.0634 30.1916 34.3054 30.7664 34.4869C31.7118 34.7894 32.5665 34.744 33.2472 34.6457C34.0035 34.5323 35.5766 33.6928 35.9018 32.7776C36.2271 31.8625 36.2271 31.0683 36.1287 30.9095C36.0153 30.728 35.7581 30.6297 35.3648 30.433Z" fill="white"/>
</svg>
