<svg width="70" height="70" viewBox="0 0 70 70" fill="none" xmlns="http://www.w3.org/2000/svg">
<path d="M35.098 62.3097C50.1264 62.3097 62.3093 50.1268 62.3093 35.0985C62.3093 20.0701 50.1264 7.88721 35.098 7.88721C20.0696 7.88721 7.88672 20.0701 7.88672 35.0985C7.88672 50.1268 20.0696 62.3097 35.098 62.3097Z" fill="black"/>
<g clip-path="url(#clip0_1860_723)">
<path d="M43.7637 18.9294H48.5784L38.062 31.6508L50.479 48.9013H40.7228L33.1205 38.4444L24.378 48.9013H19.5632L30.8399 35.314L18.9297 18.9294H28.9393L35.8447 28.5204L43.7637 18.9294ZM42.0532 45.8375H44.714L27.4822 21.7934H24.568L42.0532 45.8375Z" fill="white"/>
</g>
<defs>
<clipPath id="clip0_1860_723">
<rect width="31.5493" height="29.9718" fill="white" transform="translate(18.9297 18.9294)"/>
</clipPath>
</defs>
</svg>
