<svg width="68" height="44" viewBox="0 0 68 44" fill="none" xmlns="http://www.w3.org/2000/svg">
<path d="M0.5 22C0.5 10.1259 10.1259 0.5 22 0.5H46C57.8741 0.5 67.5 10.1259 67.5 22C67.5 33.8741 57.8741 43.5 46 43.5H22C10.1259 43.5 0.5 33.8741 0.5 22Z" stroke="#D8D8DA"/>
<path fill-rule="evenodd" clip-rule="evenodd" d="M41 22C41 22.4142 40.6642 22.75 40.25 22.75L29.6121 22.75L33.7698 26.7094C34.0684 26.9965 34.0777 27.4713 33.7906 27.7698C33.5035 28.0684 33.0287 28.0777 32.7302 27.7906L27.2302 22.5406C27.0831 22.3992 27 22.204 27 22C27 21.796 27.0831 21.6008 27.2302 21.4594L32.7302 16.2094C33.0287 15.9223 33.5035 15.9316 33.7906 16.2302C34.0777 16.5287 34.0684 17.0035 33.7698 17.2906L29.6121 21.25L40.25 21.25C40.6642 21.25 41 21.5858 41 22Z" fill="#202020"/>
</svg>
