<svg width="58" height="14" viewBox="0 0 58 14" fill="none" xmlns="http://www.w3.org/2000/svg">
<path d="M10.4995 0C9.58879 0 8.71167 0.24833 7.94159 0.720596C7.17101 0.24843 6.29329 0 5.38231 0C2.67517 0 0.472656 2.20301 0.472656 4.91095C0.472656 5.63722 0.587462 6.35533 0.815181 7.04844C0.87582 7.22906 0.9269 7.36637 0.977682 7.48675C1.56605 8.94139 2.67278 10.3383 4.26572 11.6373C4.52202 11.8479 4.79813 12.06 5.08629 12.2676L5.3836 12.4818L5.384 12.4815C6.66588 13.3656 7.71875 13.8509 7.7299 13.856L7.94268 13.9532L8.15497 13.8548C8.20157 13.8332 9.25254 13.3402 10.4999 12.4815L10.5005 12.4819L10.7982 12.2676C11.0716 12.0707 11.3471 11.8587 11.6161 11.6383C13.21 10.3392 14.3169 8.94228 14.907 7.48456C14.9661 7.3364 15.0201 7.18844 15.0668 7.04645C15.2953 6.35702 15.4112 5.63861 15.4112 4.91085C15.4111 2.20301 13.2077 0 10.4995 0ZM7.94149 1.97927C8.78187 2.71411 9.27574 3.7845 9.27574 4.91065C9.27574 5.53098 9.17716 6.14135 8.983 6.72782C8.9362 6.86822 8.89139 6.99168 8.84559 7.1043C8.62753 7.6389 8.32484 8.1726 7.94149 8.69833C7.55913 8.1725 7.25445 7.63691 7.03439 7.09833C6.98859 6.98969 6.94478 6.86921 6.89898 6.72683C6.70581 6.14135 6.60723 5.53008 6.60723 4.91065C6.60723 3.7836 7.10111 2.71411 7.94149 1.97927ZM5.38251 11.2235C5.21921 11.099 5.06089 10.9745 4.90955 10.8511C3.44884 9.66019 2.44317 8.39962 1.91743 7.09843C1.87362 6.99577 1.83081 6.88027 1.78003 6.72792C1.58686 6.14045 1.48928 5.52909 1.48928 4.91075C1.48928 2.76399 3.23575 1.01652 5.38251 1.01652C5.97296 1.01652 6.5455 1.14795 7.06825 1.39987C6.13228 2.31702 5.59061 3.58347 5.59061 4.91075C5.59061 5.63961 5.70611 6.35762 5.93314 7.04157C5.98591 7.20885 6.04067 7.35721 6.09643 7.48864C6.37523 8.1726 6.77252 8.85078 7.27934 9.50994C6.86313 9.96896 6.38619 10.419 5.85448 10.8512C5.69914 10.9785 5.54083 11.103 5.38251 11.2235ZM7.94049 12.8285C7.62883 12.6702 7.00154 12.3357 6.24977 11.8368C6.24977 11.8368 6.24679 11.8388 6.23982 11.843C6.32644 11.7751 6.41307 11.7084 6.49771 11.6388C7.02942 11.2057 7.51333 10.7537 7.94149 10.2916C8.37064 10.7546 8.85356 11.2057 9.38427 11.6378C9.46592 11.7045 9.54856 11.7702 9.6332 11.8369C8.88443 12.3327 8.25514 12.6692 7.94049 12.8285ZM14.1011 6.72782C14.0612 6.85139 14.0144 6.97874 13.9636 7.1052C13.4399 8.40062 12.4332 9.66119 10.9725 10.8511C10.8172 10.9796 10.6589 11.103 10.5016 11.2235C10.3383 11.1 10.1799 10.9755 10.0266 10.8501C9.49788 10.4189 9.02094 9.96986 8.60373 9.50984C9.11055 8.85068 9.50784 8.1716 9.78763 7.48755C9.8424 7.35313 9.89517 7.20875 9.94794 7.04645C10.176 6.35831 10.2925 5.63951 10.2925 4.91055C10.2925 3.58326 9.75079 2.31682 8.81383 1.39967C9.33757 1.14776 9.90911 1.01632 10.4996 1.01632C12.6473 1.01632 14.3948 2.76379 14.3948 4.91055C14.3947 5.53008 14.2961 6.14035 14.1011 6.72782Z" fill="black"/>
<path d="M20.9488 9.91648H20.5834C20.5026 9.91648 20.3837 9.89328 20.262 9.68408C20.1474 9.48822 20.089 9.22874 20.089 8.9133V1.47782C20.089 1.19942 19.9974 0.965432 19.8156 0.783416C19.6332 0.601898 19.3991 0.508301 19.1205 0.508301C18.8428 0.508301 18.6079 0.601798 18.4261 0.783416C18.2447 0.965233 18.1523 1.19913 18.1523 1.47782V8.9133C18.1523 9.46074 18.2532 9.96357 18.4511 10.4049C18.6523 10.8582 18.9427 11.2161 19.3149 11.4706C19.6905 11.7258 20.117 11.8539 20.5834 11.8539H20.612C20.9558 11.8539 21.2428 11.771 21.4689 11.6032C21.7146 11.4226 21.8423 11.1741 21.8423 10.8857C21.8423 10.6123 21.7606 10.3819 21.6008 10.2008C21.4347 10.0147 21.2089 9.91648 20.9488 9.91648Z" fill="black"/>
<path d="M28.6911 3.87453C28.0455 3.5087 27.3109 3.3241 26.504 3.3241C25.6859 3.3241 24.9439 3.5087 24.296 3.87453C23.6464 4.24045 23.1338 4.75553 22.773 5.40563C22.4134 6.05244 22.2324 6.79913 22.2324 7.62567C22.2324 8.44364 22.4133 9.18535 22.773 9.83147C23.1344 10.4827 23.6463 10.997 24.296 11.3637C24.9436 11.7288 25.6854 11.9134 26.504 11.9134C27.3216 11.9134 28.0619 11.7288 28.7034 11.3637C29.3489 10.997 29.86 10.4827 30.2199 9.83147C30.5798 9.18505 30.7614 8.44325 30.7614 7.62567C30.7614 6.79913 30.5758 6.05175 30.2118 5.40483C29.8461 4.75553 29.3347 4.24035 28.6911 3.87453ZM26.504 10.1215C26.0523 10.1215 25.6438 10.0147 25.286 9.80299C24.9321 9.59329 24.6508 9.29677 24.4479 8.92268C24.244 8.5467 24.1417 8.11028 24.1417 7.62567C24.1417 7.14175 24.244 6.70265 24.4482 6.31989C24.6514 5.94222 24.933 5.64361 25.2874 5.43411C25.6439 5.22322 26.0524 5.11708 26.5041 5.11708C26.9552 5.11708 27.3627 5.22322 27.7216 5.43411C28.0743 5.64361 28.3543 5.94142 28.5515 6.3185C28.7528 6.70125 28.8531 7.14086 28.8531 7.62567C28.8531 8.11038 28.7528 8.5476 28.5521 8.92607C28.3548 9.29817 28.0743 9.59329 27.7216 9.80309C27.3626 10.0147 26.9551 10.1215 26.504 10.1215Z" fill="black"/>
<path d="M38.8311 3.50972C38.7003 3.4451 38.5515 3.41174 38.3894 3.41174C38.223 3.41174 38.0601 3.45486 37.9143 3.5381C37.7608 3.62473 37.6408 3.75068 37.56 3.91647L35.2596 8.92908L32.9325 3.9091C32.8522 3.75178 32.7379 3.62751 32.5902 3.54009C32.4471 3.45575 32.2922 3.41174 32.1338 3.41174C31.9749 3.41174 31.8326 3.44669 31.7185 3.51062C31.2721 3.73435 31.1777 4.07578 31.1777 4.32282C31.1777 4.45674 31.2062 4.5821 31.2602 4.68825L34.3598 11.2258C34.4693 11.4408 34.5889 11.5921 34.731 11.6884C34.8786 11.7891 35.0621 11.8404 35.2745 11.8404C35.5518 11.8404 35.9309 11.732 36.1635 11.2218L39.2588 4.69293C39.3245 4.56229 39.3581 4.43255 39.3581 4.30788C39.3581 4.13443 39.3104 3.97472 39.2166 3.83243C39.1225 3.69323 38.9921 3.5835 38.8311 3.50972Z" fill="black"/>
<path d="M46.0156 3.85581C45.4326 3.50352 44.7381 3.3241 43.9474 3.3241C43.15 3.3241 42.4225 3.5093 41.7883 3.87552C41.1543 4.24204 40.6514 4.76021 40.296 5.41509C39.9409 6.06579 39.7637 6.81018 39.7637 7.62567C39.7637 8.44454 39.9534 9.18844 40.3292 9.83585C40.7043 10.4857 41.2352 11 41.9036 11.3647C42.5694 11.7294 43.3304 11.9133 44.1674 11.9133C44.6389 11.9133 45.1403 11.8243 45.6542 11.6516C46.1685 11.4794 46.6096 11.2478 46.956 10.9737C47.1711 10.8116 47.2841 10.5942 47.2841 10.3447C47.2841 10.0872 47.1668 9.85775 46.9422 9.67126C46.791 9.53355 46.5908 9.46325 46.3431 9.46325C46.1063 9.46325 45.8932 9.53554 45.7173 9.67315C45.5356 9.81215 45.2933 9.93333 45.0038 10.0312C44.7146 10.1296 44.4323 10.1792 44.1674 10.1792C43.4765 10.1792 42.9127 9.99238 42.4399 9.60494C42.0411 9.27905 41.7829 8.87499 41.6516 8.37514H46.9149C47.1719 8.37514 47.3902 8.2923 47.5627 8.12691C47.7361 7.95804 47.8243 7.74575 47.8243 7.49424C47.8243 6.69129 47.6698 5.96761 47.3621 5.3431C47.0508 4.71013 46.5972 4.20958 46.0156 3.85581ZM42.3727 5.58317C42.7695 5.23407 43.2984 5.05803 43.9473 5.05803C44.5309 5.05803 44.9893 5.2274 45.345 5.575C45.6484 5.87013 45.8539 6.25806 45.9588 6.73042H41.6719C41.8018 6.25895 42.0329 5.88258 42.3727 5.58317Z" fill="black"/>
<path d="M57.1548 0.783416C56.9744 0.601898 56.7342 0.508301 56.4466 0.508301C56.1687 0.508301 55.9335 0.601001 55.7476 0.780727C55.5577 0.962643 55.4635 1.20271 55.4635 1.49206V4.29858C55.1934 4.05861 54.8921 3.85688 54.5622 3.69846C54.0445 3.45013 53.4789 3.32397 52.8805 3.32397C52.1369 3.32397 51.4536 3.51276 50.848 3.88595C50.2423 4.25735 49.7614 4.77811 49.4162 5.4316C49.0734 6.0816 48.9004 6.81543 48.9004 7.6118C48.9004 8.40957 49.0878 9.1445 49.4572 9.79729C49.8277 10.4499 50.347 10.9723 51.001 11.3466C51.6513 11.7222 52.383 11.9132 53.1717 11.9132C53.9623 11.9132 54.6889 11.7218 55.3311 11.3466C55.974 10.9723 56.49 10.4499 56.865 9.79868C57.2392 9.1453 57.4308 8.40987 57.4308 7.6118V1.49206C57.4309 1.2044 57.338 0.965432 57.1548 0.783416ZM53.1718 10.1215C52.7318 10.1215 52.3276 10.0131 51.9731 9.79769C51.6161 9.58182 51.3303 9.27982 51.1228 8.90065C50.915 8.5188 50.8082 8.08656 50.8082 7.61191C50.8082 7.13834 50.9147 6.7072 51.1222 6.33102C51.3294 5.95554 51.6149 5.65672 51.9731 5.43956C52.3277 5.22518 52.7321 5.11695 53.1718 5.11695C53.6137 5.11695 54.0171 5.22508 54.3714 5.43956C54.7277 5.65563 55.0115 5.95454 55.2141 6.32863C55.4176 6.70621 55.5213 7.13715 55.5213 7.612C55.5213 8.08666 55.4176 8.52059 55.2138 8.90205C55.0111 9.28101 54.7274 9.58242 54.3714 9.79829C54.018 10.013 53.614 10.1215 53.1718 10.1215Z" fill="black"/>
</svg>
