<svg width="21" height="20" viewBox="0 0 21 20" fill="none" xmlns="http://www.w3.org/2000/svg">
<g id="heroicons-outline/photo">
<path id="Vector" d="M2.54102 13.125L6.84019 8.82582C7.57242 8.09359 8.75961 8.09359 9.49184 8.82583L13.791 13.125M12.541 11.875L13.7152 10.7008C14.4474 9.96859 15.6346 9.96859 16.3668 10.7008L18.791 13.125M3.79102 16.25H17.541C18.2314 16.25 18.791 15.6904 18.791 15V5C18.791 4.30964 18.2314 3.75 17.541 3.75H3.79102C3.10066 3.75 2.54102 4.30964 2.54102 5V15C2.54102 15.6904 3.10066 16.25 3.79102 16.25ZM12.541 6.875H12.5473V6.88125H12.541V6.875ZM12.8535 6.875C12.8535 7.04759 12.7136 7.1875 12.541 7.1875C12.3684 7.1875 12.2285 7.04759 12.2285 6.875C12.2285 6.70241 12.3684 6.5625 12.541 6.5625C12.7136 6.5625 12.8535 6.70241 12.8535 6.875Z" stroke="#202020" stroke-width="1.5" stroke-linecap="round" stroke-linejoin="round"/>
</g>
</svg>
