<svg width="17" height="16" viewBox="0 0 17 16" fill="none" xmlns="http://www.w3.org/2000/svg">
<g id="heroicons-outline/photo">
<path id="Vector" d="M2 10.5L5.43934 7.06066C6.02513 6.47487 6.97487 6.47487 7.56066 7.06066L11 10.5M10 9.5L10.9393 8.56066C11.5251 7.97487 12.4749 7.97487 13.0607 8.56066L15 10.5M3 13H14C14.5523 13 15 12.5523 15 12V4C15 3.44772 14.5523 3 14 3H3C2.44772 3 2 3.44772 2 4V12C2 12.5523 2.44772 13 3 13ZM10 5.5H10.005V5.505H10V5.5ZM10.25 5.5C10.25 5.63807 10.1381 5.75 10 5.75C9.86193 5.75 9.75 5.63807 9.75 5.5C9.75 5.36193 9.86193 5.25 10 5.25C10.1381 5.25 10.25 5.36193 10.25 5.5Z" stroke="#202020" stroke-width="1.5" stroke-linecap="round" stroke-linejoin="round"/>
</g>
</svg>
