<svg width="206" height="252" viewBox="0 0 206 252" fill="none" xmlns="http://www.w3.org/2000/svg">
<g filter="url(#filter0_dd_2206_2339)">
<path d="M6 18C6 9.16344 13.1634 2 22 2H183.924C192.761 2 199.924 9.16344 199.924 18V226C199.924 234.837 192.761 242 183.924 242H22C13.1635 242 6 234.837 6 226V18Z" fill="white"/>
<g filter="url(#filter1_i_2206_2339)">
<path d="M79.007 167.672C91.6321 176.771 102.395 181.804 102.829 182C103.261 181.804 114.04 176.771 126.667 167.672C126.42 167.493 126.173 167.313 125.925 167.131C126.175 167.313 126.424 167.494 126.673 167.673C129.089 165.932 131.578 164.031 134.065 161.986C145.564 152.603 157.237 140.191 163.297 125.218C163.803 123.977 164.269 122.703 164.701 121.401C166.857 114.9 167.668 108.681 167.668 103.005C167.667 80.354 149.309 62.0009 126.658 62.0009C117.767 62.0009 109.548 64.8335 102.831 69.6476C102.83 69.6474 102.83 69.6474 102.831 69.6476L102.83 69.6474C102.831 69.6476 102.831 69.6476 102.83 69.6474C96.1109 64.8338 87.8821 62 78.9911 62C56.3558 62 37.998 80.3531 37.998 103.003C37.998 108.679 38.8094 114.899 40.9617 121.399C41.3827 122.701 41.8435 123.974 42.3675 125.217C48.4283 140.189 60.0983 152.601 71.5996 161.984C74.0996 164.029 76.5886 165.932 79.007 167.672Z" fill="#F5F5F5"/>
</g>
</g>
<defs>
<filter id="filter0_dd_2206_2339" x="0" y="0" width="205.924" height="252" filterUnits="userSpaceOnUse" color-interpolation-filters="sRGB">
<feFlood flood-opacity="0" result="BackgroundImageFix"/>
<feColorMatrix in="SourceAlpha" type="matrix" values="0 0 0 0 0 0 0 0 0 0 0 0 0 0 0 0 0 0 127 0" result="hardAlpha"/>
<feOffset dy="4"/>
<feGaussianBlur stdDeviation="3"/>
<feColorMatrix type="matrix" values="0 0 0 0 0 0 0 0 0 0 0 0 0 0 0 0 0 0 0.1 0"/>
<feBlend mode="normal" in2="BackgroundImageFix" result="effect1_dropShadow_2206_2339"/>
<feColorMatrix in="SourceAlpha" type="matrix" values="0 0 0 0 0 0 0 0 0 0 0 0 0 0 0 0 0 0 127 0" result="hardAlpha"/>
<feOffset dy="2"/>
<feGaussianBlur stdDeviation="2"/>
<feColorMatrix type="matrix" values="0 0 0 0 0 0 0 0 0 0 0 0 0 0 0 0 0 0 0.06 0"/>
<feBlend mode="normal" in2="effect1_dropShadow_2206_2339" result="effect2_dropShadow_2206_2339"/>
<feBlend mode="normal" in="SourceGraphic" in2="effect2_dropShadow_2206_2339" result="shape"/>
</filter>
<filter id="filter1_i_2206_2339" x="37.998" y="62" width="129.67" height="122" filterUnits="userSpaceOnUse" color-interpolation-filters="sRGB">
<feFlood flood-opacity="0" result="BackgroundImageFix"/>
<feBlend mode="normal" in="SourceGraphic" in2="BackgroundImageFix" result="shape"/>
<feColorMatrix in="SourceAlpha" type="matrix" values="0 0 0 0 0 0 0 0 0 0 0 0 0 0 0 0 0 0 127 0" result="hardAlpha"/>
<feOffset dy="2"/>
<feGaussianBlur stdDeviation="1"/>
<feComposite in2="hardAlpha" operator="arithmetic" k2="-1" k3="1"/>
<feColorMatrix type="matrix" values="0 0 0 0 0 0 0 0 0 0 0 0 0 0 0 0 0 0 0.25 0"/>
<feBlend mode="normal" in2="shape" result="effect1_innerShadow_2206_2339"/>
</filter>
</defs>
</svg>
