<svg width="41" height="11" viewBox="0 0 41 11" fill="none" xmlns="http://www.w3.org/2000/svg">
<g id="Group">
<path id="Vector" d="M7.44743 0.970703C6.80295 0.970703 6.18222 1.14644 5.63724 1.48066C5.09191 1.14651 4.47076 0.970703 3.82607 0.970703C1.91026 0.970703 0.351562 2.52975 0.351562 4.44613C0.351562 4.96003 0.432809 5.46816 0.593964 5.95874C0.636877 6.08656 0.673026 6.18373 0.708963 6.26885C1.12534 7.29835 1.90857 8.28691 3.03587 9.2062C3.21725 9.35517 3.41265 9.50526 3.61658 9.65225L3.82699 9.80389L3.82727 9.80368C4.73444 10.4293 5.47954 10.7728 5.48743 10.7764L5.63802 10.8452L5.78825 10.7756C5.82123 10.7603 6.56499 10.4114 7.44771 9.80375L7.44813 9.80403L7.65882 9.65232C7.85232 9.51301 8.0473 9.36299 8.23763 9.20698C9.36564 8.28762 10.149 7.29906 10.5666 6.26745C10.6084 6.16259 10.6466 6.05788 10.6797 5.95733C10.8414 5.4695 10.9234 4.96102 10.9234 4.44606C10.9233 2.52975 9.36402 0.970703 7.44743 0.970703ZM5.63717 2.37141C6.2319 2.89145 6.58141 3.64895 6.58141 4.44592C6.58141 4.88491 6.51165 5.31687 6.37424 5.73191C6.34112 5.83127 6.30941 5.91864 6.277 5.99827C6.12268 6.37667 5.90846 6.75436 5.63717 7.12642C5.36659 6.75436 5.15096 6.37526 4.99523 5.99404C4.96282 5.91723 4.93181 5.83197 4.8994 5.73121C4.7627 5.31687 4.69294 4.88421 4.69294 4.44592C4.69294 3.64825 5.04244 2.89145 5.63717 2.37141ZM3.82621 8.91342C3.71065 8.82534 3.59861 8.73726 3.4915 8.64988C2.45777 7.80712 1.74607 6.91502 1.37402 5.99411C1.34301 5.92153 1.31271 5.83979 1.27677 5.73198C1.14007 5.31623 1.07101 4.88358 1.07101 4.44599C1.07101 2.92675 2.30698 1.69008 3.82621 1.69008C4.24407 1.69008 4.64925 1.7831 5.01919 1.96138C4.35682 2.61036 3.97348 3.50668 3.97348 4.44599C3.97348 4.96179 4.05522 5.46985 4.21588 5.95395C4.25323 6.07233 4.29199 6.17732 4.33145 6.27033C4.52875 6.75443 4.80991 7.2343 5.16858 7.70078C4.87403 8.02563 4.5365 8.34413 4.16022 8.64995C4.05029 8.74008 3.93825 8.82816 3.82621 8.91342ZM5.63647 10.0493C5.41591 9.93729 4.97198 9.70052 4.43997 9.34749C4.43997 9.34749 4.43785 9.3489 4.43292 9.35172C4.49422 9.3038 4.55553 9.25659 4.61542 9.20726C4.99171 8.90074 5.33417 8.58083 5.63717 8.25387C5.94088 8.58153 6.28264 8.90074 6.65822 9.20656C6.716 9.25377 6.77448 9.30028 6.83438 9.34749C6.30448 9.69841 5.85914 9.93658 5.63647 10.0493ZM9.99623 5.73191C9.96805 5.81929 9.93493 5.90948 9.89899 5.99897C9.52834 6.91573 8.81594 7.80782 7.78221 8.64988C7.67228 8.74078 7.56024 8.82816 7.44891 8.91342C7.33335 8.82604 7.22131 8.73796 7.11279 8.64918C6.73862 8.34406 6.40109 8.02626 6.10584 7.70071C6.46451 7.23423 6.74566 6.75366 6.94367 6.26956C6.98243 6.17443 7.01977 6.07226 7.05712 5.9574C7.21849 5.47048 7.30093 4.96172 7.30093 4.44592C7.30093 3.50661 6.9176 2.61029 6.25452 1.96131C6.62517 1.78303 7.02964 1.69001 7.4475 1.69001C8.96744 1.69001 10.2041 2.92668 10.2041 4.44592C10.204 4.88421 10.1343 5.31616 9.99623 5.73191Z" fill="#2E266F"/>
<g id="Group_2">
<path id="Vector_2" d="M14.8428 7.98839H14.5842C14.527 7.98839 14.4429 7.97197 14.3567 7.82385C14.2756 7.68532 14.2343 7.50168 14.2343 7.27838V2.01637C14.2343 1.81942 14.1695 1.6539 14.0408 1.52502C13.9117 1.39649 13.7461 1.33032 13.5489 1.33032C13.3524 1.33032 13.1862 1.39642 13.0575 1.52502C12.9292 1.65369 12.8638 1.81914 12.8638 2.01637V7.27838C12.8638 7.66587 12.9352 8.02165 13.0752 8.33402C13.2176 8.65485 13.4231 8.9081 13.6865 9.08814C13.9523 9.26881 14.2541 9.3595 14.5842 9.3595H14.6044C14.8477 9.3595 15.0509 9.3008 15.2108 9.18207C15.3847 9.05432 15.4751 8.87837 15.4751 8.6743C15.4751 8.4808 15.4173 8.31767 15.3042 8.18957C15.1867 8.0578 15.0268 7.98839 14.8428 7.98839Z" fill="#2E266F"/>
<path id="Vector_3" d="M20.3217 3.71246C19.8648 3.45357 19.345 3.323 18.7739 3.323C18.195 3.323 17.6699 3.45364 17.2114 3.71246C16.7517 3.97142 16.3889 4.33594 16.1335 4.79601C15.8791 5.25375 15.751 5.78217 15.751 6.3671C15.751 6.94598 15.879 7.47087 16.1335 7.92812C16.3893 8.38897 16.7516 8.75299 17.2114 9.01244C17.6697 9.27077 18.1946 9.40148 18.7739 9.40148C19.3525 9.40148 19.8764 9.27077 20.3304 9.01244C20.7872 8.75299 21.1489 8.38897 21.4036 7.92812C21.6583 7.47059 21.7868 6.9457 21.7868 6.3671C21.7868 5.78217 21.6555 5.25333 21.3979 4.79551C21.1391 4.33594 20.7772 3.97142 20.3217 3.71246ZM18.7739 8.13339C18.4542 8.13339 18.1652 8.05778 17.9119 7.90797C17.6615 7.75964 17.4624 7.54979 17.3188 7.28506C17.1745 7.01898 17.1022 6.71006 17.1022 6.36717C17.1022 6.02464 17.1745 5.71389 17.319 5.44309C17.4629 5.17582 17.6621 4.96449 17.9129 4.81623C18.1653 4.66699 18.4543 4.59187 18.774 4.59187C19.0932 4.59187 19.3816 4.66699 19.6356 4.81623C19.8852 4.96449 20.0833 5.17518 20.2229 5.4421C20.3654 5.71304 20.4364 6.02401 20.4364 6.36724C20.4364 6.71027 20.3654 7.01961 20.2233 7.28752C20.0837 7.55085 19.8852 7.75971 19.6356 7.90811C19.3816 8.05778 19.0932 8.13339 18.7739 8.13339Z" fill="#2E266F"/>
<path id="Vector_4" d="M27.4982 3.45435C27.4057 3.40862 27.3003 3.38501 27.1856 3.38501C27.0679 3.38501 26.9526 3.41559 26.8494 3.47443C26.7408 3.53581 26.6559 3.6248 26.5987 3.7422L24.9707 7.28957L23.3238 3.73706C23.267 3.62572 23.1862 3.53778 23.0816 3.47584C22.9803 3.41616 22.8707 3.38501 22.7586 3.38501C22.6462 3.38501 22.5455 3.40974 22.4647 3.45505C22.1488 3.61339 22.082 3.85494 22.082 4.02977C22.082 4.12454 22.1022 4.21326 22.1404 4.28831L24.334 8.91492C24.4114 9.06713 24.4961 9.17423 24.5967 9.2423C24.7011 9.31347 24.831 9.34991 24.9813 9.34991C25.1775 9.34991 25.4458 9.27317 25.6104 8.91211L27.8009 4.29169C27.8474 4.19917 27.8712 4.10742 27.8712 4.0192C27.8712 3.89638 27.8374 3.78335 27.7711 3.68273C27.7045 3.58422 27.6122 3.50649 27.4982 3.45435Z" fill="#2E266F"/>
<path id="Vector_5" d="M32.5817 3.69914C32.169 3.44998 31.6776 3.323 31.118 3.323C30.5537 3.323 30.0389 3.45406 29.5901 3.71317C29.1413 3.97248 28.7855 4.33925 28.5339 4.8027C28.2827 5.26319 28.1572 5.78999 28.1572 6.3671C28.1572 6.94661 28.2915 7.47306 28.5575 7.93122C28.8229 8.39101 29.1986 8.75504 29.6716 9.01315C30.1428 9.27126 30.6814 9.40142 31.2737 9.40142C31.6074 9.40142 31.9622 9.33842 32.3259 9.21616C32.6898 9.09426 33.002 8.93035 33.2472 8.7365C33.3994 8.62179 33.4793 8.46789 33.4793 8.2913C33.4793 8.10908 33.3963 7.94673 33.2374 7.81475C33.1304 7.71729 32.9887 7.66754 32.8134 7.66754C32.6458 7.66754 32.495 7.7187 32.3706 7.81608C32.242 7.91438 32.0705 8.00028 31.8656 8.06948C31.661 8.1391 31.4611 8.17412 31.2737 8.17412C30.7847 8.17412 30.3858 8.042 30.0512 7.76781C29.7689 7.53718 29.5862 7.25123 29.4933 6.8975H33.2181C33.3999 6.8975 33.5545 6.83887 33.6765 6.72183C33.7992 6.60232 33.8616 6.45201 33.8616 6.27402C33.8616 5.70586 33.7523 5.19371 33.5346 4.75168C33.3142 4.30388 32.9933 3.94958 32.5817 3.69914ZM30.0036 4.92172C30.2844 4.6746 30.6587 4.55001 31.1179 4.55001C31.531 4.55001 31.8553 4.6698 32.1071 4.91587C32.3218 5.12466 32.4672 5.39919 32.5414 5.73355H29.5076C29.5996 5.39997 29.7631 5.13354 30.0036 4.92172Z" fill="#2E266F"/>
<path id="Vector_6" d="M40.4646 1.52502C40.3369 1.39649 40.167 1.33032 39.9634 1.33032C39.7667 1.33032 39.6003 1.39585 39.4687 1.52312C39.3344 1.65186 39.2677 1.82175 39.2677 2.02652V4.01266C39.0765 3.84284 38.8633 3.70007 38.6299 3.58796C38.2635 3.41215 37.8632 3.32301 37.4398 3.32301C36.9135 3.32301 36.4299 3.45662 36.0013 3.72072C35.5727 3.98356 35.2324 4.35209 34.9881 4.81456C34.7455 5.27462 34.623 5.79395 34.623 6.35747C34.623 6.92196 34.7557 7.44214 35.0171 7.90411C35.2793 8.36594 35.6468 8.73567 36.1097 9.00055C36.5699 9.26635 37.0876 9.4015 37.6458 9.4015C38.2053 9.4015 38.7195 9.266 39.174 9.00055C39.629 8.73567 39.9941 8.36594 40.2595 7.90503C40.5243 7.4427 40.66 6.92218 40.66 6.35747V2.02652C40.66 1.82295 40.5943 1.6539 40.4646 1.52502ZM37.6459 8.13347C37.3345 8.13347 37.0485 8.05681 36.7975 7.90439C36.5449 7.75162 36.3427 7.5379 36.1958 7.26957C36.0488 6.99933 35.9732 6.69344 35.9732 6.35761C35.9732 6.02247 36.0486 5.71736 36.1954 5.451C36.342 5.18527 36.5441 4.97381 36.7975 4.82019C37.0485 4.66848 37.3347 4.59188 37.6459 4.59188C37.9586 4.59188 38.2441 4.66841 38.4948 4.82019C38.747 4.97303 38.9478 5.18471 39.0912 5.44931C39.2352 5.71658 39.3086 6.02156 39.3086 6.35761C39.3086 6.69344 39.2352 7.0006 39.091 7.27049C38.9475 7.53875 38.7468 7.75205 38.4948 7.90481C38.2448 8.05674 37.9588 8.13347 37.6459 8.13347Z" fill="#2E266F"/>
</g>
</g>
</svg>
